<svg width="177" height="136" viewBox="0 0 177 136" fill="none" xmlns="http://www.w3.org/2000/svg">
<rect x="1" width="105" height="18" rx="9" fill="#BEE1E6"/>
<path d="M23.6825 5.08V13H22.7705V8.02L22.8785 5.932H22.8665L20.2625 13H19.4465L16.8425 5.932H16.8305L16.9385 8.02V13H16.0265V5.08H17.5025L19.2425 9.892L19.8425 11.872H19.8665L20.4785 9.904L22.2065 5.08H23.6825ZM29.5223 9.124C29.5223 8.676 29.4023 8.332 29.1623 8.092C28.9223 7.844 28.5823 7.72 28.1423 7.72C27.7263 7.72 27.3743 7.812 27.0863 7.996C26.7983 8.172 26.5863 8.46 26.4503 8.86L25.6703 8.38C25.8303 7.932 26.1263 7.572 26.5583 7.3C26.9903 7.02 27.5263 6.88 28.1663 6.88C28.5983 6.88 28.9903 6.956 29.3423 7.108C29.6943 7.252 29.9703 7.476 30.1703 7.78C30.3783 8.076 30.4823 8.46 30.4823 8.932V11.836C30.4823 12.124 30.6343 12.268 30.9383 12.268C31.0903 12.268 31.2383 12.248 31.3823 12.208L31.3343 12.964C31.1743 13.044 30.9663 13.084 30.7103 13.084C30.4783 13.084 30.2703 13.04 30.0863 12.952C29.9023 12.864 29.7583 12.732 29.6543 12.556C29.5503 12.372 29.4983 12.144 29.4983 11.872V11.752L29.7383 11.788C29.6423 12.1 29.4783 12.356 29.2463 12.556C29.0143 12.748 28.7543 12.892 28.4663 12.988C28.1783 13.076 27.8943 13.12 27.6143 13.12C27.2623 13.12 26.9343 13.06 26.6303 12.94C26.3263 12.82 26.0823 12.64 25.8983 12.4C25.7223 12.152 25.6343 11.848 25.6343 11.488C25.6343 11.04 25.7823 10.672 26.0783 10.384C26.3823 10.088 26.8023 9.888 27.3383 9.784L29.7143 9.316V10.108L27.7823 10.504C27.3903 10.584 27.0983 10.696 26.9063 10.84C26.7143 10.984 26.6183 11.184 26.6183 11.44C26.6183 11.688 26.7143 11.892 26.9063 12.052C27.1063 12.204 27.3863 12.28 27.7463 12.28C27.9783 12.28 28.1983 12.252 28.4063 12.196C28.6223 12.132 28.8143 12.04 28.9823 11.92C29.1503 11.792 29.2823 11.636 29.3783 11.452C29.4743 11.26 29.5223 11.036 29.5223 10.78V9.124ZM32.8152 13V7H33.5952L33.7272 7.984C33.8952 7.616 34.1392 7.34 34.4592 7.156C34.7872 6.972 35.1832 6.88 35.6472 6.88C35.7512 6.88 35.8632 6.888 35.9832 6.904C36.1112 6.92 36.2192 6.952 36.3072 7L36.1392 7.876C36.0512 7.844 35.9552 7.82 35.8512 7.804C35.7472 7.788 35.5992 7.78 35.4072 7.78C35.1592 7.78 34.9072 7.852 34.6512 7.996C34.4032 8.14 34.1952 8.36 34.0272 8.656C33.8592 8.944 33.7752 9.312 33.7752 9.76V13H32.8152ZM42.9817 7L40.3897 9.592L40.1617 9.82L38.1937 11.788V10.588L41.7697 7H42.9817ZM38.6737 4.24V13H37.7137V4.24H38.6737ZM40.4737 9.1L43.1257 13H41.9617L39.6697 9.64L40.4737 9.1ZM46.8193 13.12C46.2513 13.12 45.7433 12.996 45.2953 12.748C44.8553 12.5 44.5113 12.144 44.2633 11.68C44.0153 11.208 43.8913 10.648 43.8913 10C43.8913 9.352 44.0153 8.796 44.2633 8.332C44.5113 7.86 44.8513 7.5 45.2833 7.252C45.7153 7.004 46.2073 6.88 46.7593 6.88C47.3193 6.88 47.7953 7 48.1873 7.24C48.5873 7.48 48.8913 7.808 49.0993 8.224C49.3073 8.632 49.4113 9.092 49.4113 9.604C49.4113 9.74 49.4073 9.864 49.3993 9.976C49.3913 10.088 49.3793 10.188 49.3633 10.276H44.5153V9.424H48.9433L48.4513 9.52C48.4513 8.944 48.2913 8.5 47.9713 8.188C47.6593 7.876 47.2473 7.72 46.7353 7.72C46.3433 7.72 46.0033 7.812 45.7153 7.996C45.4353 8.172 45.2153 8.432 45.0553 8.776C44.9033 9.112 44.8273 9.52 44.8273 10C44.8273 10.472 44.9073 10.88 45.0673 11.224C45.2273 11.568 45.4513 11.832 45.7393 12.016C46.0353 12.192 46.3873 12.28 46.7953 12.28C47.2353 12.28 47.5913 12.196 47.8633 12.028C48.1433 11.86 48.3673 11.632 48.5353 11.344L49.2913 11.788C49.1393 12.06 48.9433 12.296 48.7033 12.496C48.4713 12.696 48.1953 12.852 47.8753 12.964C47.5633 13.068 47.2113 13.12 46.8193 13.12ZM52.4773 5.296V11.344C52.4773 11.64 52.5613 11.86 52.7293 12.004C52.8973 12.148 53.1133 12.22 53.3773 12.22C53.6093 12.22 53.8093 12.18 53.9773 12.1C54.1453 12.02 54.2973 11.912 54.4333 11.776L54.7693 12.58C54.5853 12.748 54.3653 12.88 54.1093 12.976C53.8613 13.072 53.5733 13.12 53.2453 13.12C52.9413 13.12 52.6573 13.068 52.3933 12.964C52.1293 12.852 51.9173 12.68 51.7573 12.448C51.6053 12.208 51.5253 11.896 51.5173 11.512V5.56L52.4773 5.296ZM54.6613 7V7.828H50.3173V7H54.6613ZM62.9025 4.96C63.5985 4.96 64.1985 5.104 64.7025 5.392C65.2065 5.672 65.6265 6.088 65.9625 6.64L65.1585 7.264C64.8625 6.752 64.5265 6.392 64.1505 6.184C63.7825 5.968 63.3345 5.86 62.8065 5.86C62.3825 5.86 62.0305 5.92 61.7505 6.04C61.4785 6.16 61.2785 6.32 61.1505 6.52C61.0225 6.712 60.9585 6.932 60.9585 7.18C60.9585 7.46 61.0465 7.708 61.2225 7.924C61.3985 8.132 61.7505 8.296 62.2785 8.416L63.9945 8.8C64.7545 8.968 65.2825 9.224 65.5785 9.568C65.8825 9.904 66.0345 10.324 66.0345 10.828C66.0345 11.276 65.9065 11.676 65.6505 12.028C65.4025 12.372 65.0505 12.64 64.5945 12.832C64.1385 13.024 63.6025 13.12 62.9865 13.12C62.4105 13.12 61.9025 13.044 61.4625 12.892C61.0305 12.732 60.6585 12.52 60.3465 12.256C60.0345 11.992 59.7785 11.696 59.5785 11.368L60.4185 10.684C60.5705 10.988 60.7665 11.256 61.0065 11.488C61.2465 11.72 61.5345 11.9 61.8705 12.028C62.2145 12.156 62.6065 12.22 63.0465 12.22C63.4545 12.22 63.8065 12.172 64.1025 12.076C64.4065 11.972 64.6385 11.824 64.7985 11.632C64.9585 11.432 65.0385 11.192 65.0385 10.912C65.0385 10.656 64.9545 10.428 64.7865 10.228C64.6185 10.02 64.3025 9.864 63.8385 9.76L61.9785 9.34C61.4905 9.228 61.0945 9.076 60.7905 8.884C60.4945 8.684 60.2785 8.452 60.1425 8.188C60.0145 7.916 59.9505 7.624 59.9505 7.312C59.9505 6.888 60.0665 6.5 60.2985 6.148C60.5385 5.788 60.8785 5.5 61.3185 5.284C61.7665 5.068 62.2945 4.96 62.9025 4.96ZM69.282 5.296V11.344C69.282 11.64 69.366 11.86 69.534 12.004C69.702 12.148 69.918 12.22 70.182 12.22C70.414 12.22 70.614 12.18 70.782 12.1C70.95 12.02 71.102 11.912 71.238 11.776L71.574 12.58C71.39 12.748 71.17 12.88 70.914 12.976C70.666 13.072 70.378 13.12 70.05 13.12C69.746 13.12 69.462 13.068 69.198 12.964C68.934 12.852 68.722 12.68 68.562 12.448C68.41 12.208 68.33 11.896 68.322 11.512V5.56L69.282 5.296ZM71.466 7V7.828H67.122V7H71.466ZM76.3973 9.124C76.3973 8.676 76.2773 8.332 76.0373 8.092C75.7973 7.844 75.4573 7.72 75.0173 7.72C74.6013 7.72 74.2493 7.812 73.9613 7.996C73.6733 8.172 73.4613 8.46 73.3253 8.86L72.5453 8.38C72.7053 7.932 73.0013 7.572 73.4333 7.3C73.8653 7.02 74.4013 6.88 75.0413 6.88C75.4733 6.88 75.8653 6.956 76.2173 7.108C76.5693 7.252 76.8453 7.476 77.0453 7.78C77.2533 8.076 77.3573 8.46 77.3573 8.932V11.836C77.3573 12.124 77.5093 12.268 77.8133 12.268C77.9653 12.268 78.1133 12.248 78.2573 12.208L78.2093 12.964C78.0493 13.044 77.8413 13.084 77.5853 13.084C77.3533 13.084 77.1453 13.04 76.9613 12.952C76.7773 12.864 76.6333 12.732 76.5293 12.556C76.4253 12.372 76.3733 12.144 76.3733 11.872V11.752L76.6133 11.788C76.5173 12.1 76.3533 12.356 76.1213 12.556C75.8893 12.748 75.6293 12.892 75.3413 12.988C75.0533 13.076 74.7693 13.12 74.4893 13.12C74.1373 13.12 73.8093 13.06 73.5053 12.94C73.2013 12.82 72.9573 12.64 72.7733 12.4C72.5973 12.152 72.5093 11.848 72.5093 11.488C72.5093 11.04 72.6573 10.672 72.9533 10.384C73.2573 10.088 73.6773 9.888 74.2133 9.784L76.5893 9.316V10.108L74.6573 10.504C74.2653 10.584 73.9733 10.696 73.7813 10.84C73.5893 10.984 73.4933 11.184 73.4933 11.44C73.4933 11.688 73.5893 11.892 73.7813 12.052C73.9813 12.204 74.2613 12.28 74.6213 12.28C74.8533 12.28 75.0733 12.252 75.2813 12.196C75.4973 12.132 75.6893 12.04 75.8573 11.92C76.0253 11.792 76.1573 11.636 76.2533 11.452C76.3493 11.26 76.3973 11.036 76.3973 10.78V9.124ZM80.8718 5.296V11.344C80.8718 11.64 80.9558 11.86 81.1238 12.004C81.2918 12.148 81.5078 12.22 81.7718 12.22C82.0038 12.22 82.2038 12.18 82.3718 12.1C82.5398 12.02 82.6918 11.912 82.8278 11.776L83.1638 12.58C82.9798 12.748 82.7598 12.88 82.5038 12.976C82.2558 13.072 81.9678 13.12 81.6398 13.12C81.3358 13.12 81.0518 13.068 80.7878 12.964C80.5238 12.852 80.3118 12.68 80.1518 12.448C79.9998 12.208 79.9198 11.896 79.9118 11.512V5.56L80.8718 5.296ZM83.0558 7V7.828H78.7118V7H83.0558ZM84.9632 5.848C84.7472 5.848 84.5712 5.784 84.4352 5.656C84.3072 5.52 84.2432 5.344 84.2432 5.128C84.2432 4.912 84.3072 4.74 84.4352 4.612C84.5712 4.476 84.7472 4.408 84.9632 4.408C85.1792 4.408 85.3512 4.476 85.4792 4.612C85.6152 4.74 85.6832 4.912 85.6832 5.128C85.6832 5.344 85.6152 5.52 85.4792 5.656C85.3512 5.784 85.1792 5.848 84.9632 5.848ZM85.4432 7V13H84.4832V7H85.4432ZM90.1547 6.88C90.5707 6.88 90.9347 6.944 91.2467 7.072C91.5667 7.2 91.8427 7.384 92.0747 7.624C92.3067 7.864 92.4947 8.148 92.6387 8.476L91.7267 8.908C91.5987 8.524 91.4027 8.232 91.1387 8.032C90.8827 7.824 90.5467 7.72 90.1307 7.72C89.7307 7.72 89.3867 7.812 89.0987 7.996C88.8107 8.172 88.5907 8.432 88.4387 8.776C88.2867 9.112 88.2107 9.52 88.2107 10C88.2107 10.472 88.2867 10.88 88.4387 11.224C88.5907 11.568 88.8107 11.832 89.0987 12.016C89.3867 12.192 89.7307 12.28 90.1307 12.28C90.4427 12.28 90.7107 12.232 90.9347 12.136C91.1667 12.04 91.3547 11.9 91.4987 11.716C91.6507 11.532 91.7547 11.308 91.8107 11.044L92.6987 11.356C92.5627 11.724 92.3747 12.04 92.1347 12.304C91.9027 12.568 91.6187 12.772 91.2827 12.916C90.9547 13.052 90.5787 13.12 90.1547 13.12C89.5947 13.12 89.0947 12.996 88.6547 12.748C88.2147 12.5 87.8707 12.144 87.6227 11.68C87.3747 11.208 87.2507 10.648 87.2507 10C87.2507 9.352 87.3747 8.796 87.6227 8.332C87.8707 7.86 88.2147 7.5 88.6547 7.252C89.0947 7.004 89.5947 6.88 90.1547 6.88Z" fill="#006D77"/>
<circle cx="9.5" cy="9.5" r="2.5" fill="#006D77"/>
<path d="M1 92.7022C12.6249 94.1808 16 90.0313 17.3636 82.6864C25.5455 68.6643 47.3636 67.3289 55.5455 74.0061C69.1818 91.3668 75.3182 94.7054 84.1818 76.0092C97.9065 57.028 101.899 56.6137 108.727 65.9934C118.086 72.1312 120.245 74.2713 121.682 82.0187C123.727 86.025 128.309 84.7081 129.864 78.6801C146 53.9993 154 52 169 65.9935" stroke="#101828" stroke-width="2" stroke-linecap="round"/>
<circle cx="118.5" cy="73.5" r="3.85" fill="white" stroke="#006D77" stroke-width="1.3"/>
<rect x="129" y="120" width="26" height="13" rx="6.5" fill="#AFEAE4"/>
<path d="M6.08945 123.4V127.74C6.08945 128.48 5.88945 129.06 5.48945 129.48C5.09612 129.893 4.54945 130.1 3.84945 130.1C3.35612 130.1 2.94945 130.007 2.62945 129.82C2.30945 129.633 2.08612 129.37 1.95945 129.03C1.83945 128.683 1.82279 128.28 1.90945 127.82L2.64945 127.67C2.57612 128.237 2.62612 128.66 2.79945 128.94C2.97945 129.213 3.31945 129.35 3.81945 129.35C4.38612 129.35 4.77279 129.197 4.97945 128.89C5.18612 128.577 5.28945 128.127 5.28945 127.54V123.4H6.08945ZM10.8777 126.77C10.8777 126.397 10.7777 126.11 10.5777 125.91C10.3777 125.703 10.0944 125.6 9.72773 125.6C9.38107 125.6 9.08773 125.677 8.84773 125.83C8.60773 125.977 8.43107 126.217 8.31773 126.55L7.66773 126.15C7.80107 125.777 8.04773 125.477 8.40773 125.25C8.76773 125.017 9.2144 124.9 9.74773 124.9C10.1077 124.9 10.4344 124.963 10.7277 125.09C11.0211 125.21 11.2511 125.397 11.4177 125.65C11.5911 125.897 11.6777 126.217 11.6777 126.61V129.03C11.6777 129.27 11.8044 129.39 12.0577 129.39C12.1844 129.39 12.3077 129.373 12.4277 129.34L12.3877 129.97C12.2544 130.037 12.0811 130.07 11.8677 130.07C11.6744 130.07 11.5011 130.033 11.3477 129.96C11.1944 129.887 11.0744 129.777 10.9877 129.63C10.9011 129.477 10.8577 129.287 10.8577 129.06V128.96L11.0577 128.99C10.9777 129.25 10.8411 129.463 10.6477 129.63C10.4544 129.79 10.2377 129.91 9.99773 129.99C9.75773 130.063 9.52107 130.1 9.28773 130.1C8.9944 130.1 8.72107 130.05 8.46773 129.95C8.2144 129.85 8.01107 129.7 7.85773 129.5C7.71107 129.293 7.63773 129.04 7.63773 128.74C7.63773 128.367 7.76107 128.06 8.00773 127.82C8.26107 127.573 8.61107 127.407 9.05773 127.32L11.0377 126.93V127.59L9.42773 127.92C9.10107 127.987 8.85773 128.08 8.69773 128.2C8.53773 128.32 8.45773 128.487 8.45773 128.7C8.45773 128.907 8.53773 129.077 8.69773 129.21C8.8644 129.337 9.09773 129.4 9.39773 129.4C9.59107 129.4 9.7744 129.377 9.94773 129.33C10.1277 129.277 10.2877 129.2 10.4277 129.1C10.5677 128.993 10.6777 128.863 10.7577 128.71C10.8377 128.55 10.8777 128.363 10.8777 128.15V126.77ZM13.7218 130V125H14.4218L14.4918 126.12L14.3618 126.01C14.4685 125.743 14.6118 125.53 14.7918 125.37C14.9718 125.203 15.1785 125.083 15.4118 125.01C15.6518 124.937 15.8985 124.9 16.1518 124.9C16.5118 124.9 16.8385 124.97 17.1318 125.11C17.4251 125.243 17.6585 125.45 17.8318 125.73C18.0118 126.01 18.1018 126.367 18.1018 126.8V130H17.3018V127.08C17.3018 126.527 17.1818 126.143 16.9418 125.93C16.7085 125.71 16.4185 125.6 16.0718 125.6C15.8318 125.6 15.5918 125.657 15.3518 125.77C15.1118 125.883 14.9118 126.067 14.7518 126.32C14.5985 126.573 14.5218 126.913 14.5218 127.34V130H13.7218ZM35.3078 124.15H31.4878V126.28H34.4678V127.03H31.4878V130H30.6878V123.4H35.3078V124.15ZM38.2845 130.1C37.8111 130.1 37.3878 129.997 37.0145 129.79C36.6478 129.583 36.3611 129.287 36.1545 128.9C35.9478 128.507 35.8445 128.04 35.8445 127.5C35.8445 126.96 35.9478 126.497 36.1545 126.11C36.3611 125.717 36.6445 125.417 37.0045 125.21C37.3645 125.003 37.7745 124.9 38.2345 124.9C38.7011 124.9 39.0978 125 39.4245 125.2C39.7578 125.4 40.0111 125.673 40.1845 126.02C40.3578 126.36 40.4445 126.743 40.4445 127.17C40.4445 127.283 40.4411 127.387 40.4345 127.48C40.4278 127.573 40.4178 127.657 40.4045 127.73H36.3645V127.02H40.0545L39.6445 127.1C39.6445 126.62 39.5111 126.25 39.2445 125.99C38.9845 125.73 38.6411 125.6 38.2145 125.6C37.8878 125.6 37.6045 125.677 37.3645 125.83C37.1311 125.977 36.9478 126.193 36.8145 126.48C36.6878 126.76 36.6245 127.1 36.6245 127.5C36.6245 127.893 36.6911 128.233 36.8245 128.52C36.9578 128.807 37.1445 129.027 37.3845 129.18C37.6311 129.327 37.9245 129.4 38.2645 129.4C38.6311 129.4 38.9278 129.33 39.1545 129.19C39.3878 129.05 39.5745 128.86 39.7145 128.62L40.3445 128.99C40.2178 129.217 40.0545 129.413 39.8545 129.58C39.6611 129.747 39.4311 129.877 39.1645 129.97C38.9045 130.057 38.6111 130.1 38.2845 130.1ZM44.5159 130.1C44.2359 130.1 43.9759 130.05 43.7359 129.95C43.4959 129.85 43.2893 129.71 43.1159 129.53C42.9426 129.35 42.8126 129.147 42.7259 128.92L42.8359 128.78L42.7659 130H42.0659V122.7H42.8659V126.13L42.7659 125.98C42.8993 125.667 43.1226 125.41 43.4359 125.21C43.7559 125.003 44.1193 124.9 44.5259 124.9C44.9393 124.9 45.3193 125.003 45.6659 125.21C46.0126 125.417 46.2893 125.713 46.4959 126.1C46.7026 126.487 46.8059 126.953 46.8059 127.5C46.8059 128.04 46.6993 128.507 46.4859 128.9C46.2793 129.287 46.0026 129.583 45.6559 129.79C45.3093 129.997 44.9293 130.1 44.5159 130.1ZM44.4359 129.4C44.9293 129.4 45.3126 129.227 45.5859 128.88C45.8659 128.533 46.0059 128.073 46.0059 127.5C46.0059 126.927 45.8693 126.467 45.5959 126.12C45.3226 125.773 44.9393 125.6 44.4459 125.6C44.1326 125.6 43.8559 125.68 43.6159 125.84C43.3826 126 43.1993 126.223 43.0659 126.51C42.9326 126.797 42.8659 127.133 42.8659 127.52C42.8659 127.9 42.9293 128.233 43.0559 128.52C43.1893 128.8 43.3726 129.017 43.6059 129.17C43.8459 129.323 44.1226 129.4 44.4359 129.4ZM61.9819 123.4V130H61.2219V125.85L61.3119 124.11H61.3019L59.1319 130H58.4519L56.2819 124.11H56.2719L56.3619 125.85V130H55.6019V123.4H56.8319L58.2819 127.41L58.7819 129.06H58.8019L59.3119 127.42L60.7519 123.4H61.9819ZM66.9484 126.77C66.9484 126.397 66.8484 126.11 66.6484 125.91C66.4484 125.703 66.1651 125.6 65.7984 125.6C65.4518 125.6 65.1584 125.677 64.9184 125.83C64.6784 125.977 64.5018 126.217 64.3884 126.55L63.7384 126.15C63.8718 125.777 64.1184 125.477 64.4784 125.25C64.8384 125.017 65.2851 124.9 65.8184 124.9C66.1784 124.9 66.5051 124.963 66.7984 125.09C67.0918 125.21 67.3218 125.397 67.4884 125.65C67.6618 125.897 67.7484 126.217 67.7484 126.61V129.03C67.7484 129.27 67.8751 129.39 68.1284 129.39C68.2551 129.39 68.3784 129.373 68.4984 129.34L68.4584 129.97C68.3251 130.037 68.1518 130.07 67.9384 130.07C67.7451 130.07 67.5718 130.033 67.4184 129.96C67.2651 129.887 67.1451 129.777 67.0584 129.63C66.9718 129.477 66.9284 129.287 66.9284 129.06V128.96L67.1284 128.99C67.0484 129.25 66.9118 129.463 66.7184 129.63C66.5251 129.79 66.3084 129.91 66.0684 129.99C65.8284 130.063 65.5918 130.1 65.3584 130.1C65.0651 130.1 64.7918 130.05 64.5384 129.95C64.2851 129.85 64.0818 129.7 63.9284 129.5C63.7818 129.293 63.7084 129.04 63.7084 128.74C63.7084 128.367 63.8318 128.06 64.0784 127.82C64.3318 127.573 64.6818 127.407 65.1284 127.32L67.1084 126.93V127.59L65.4984 127.92C65.1718 127.987 64.9284 128.08 64.7684 128.2C64.6084 128.32 64.5284 128.487 64.5284 128.7C64.5284 128.907 64.6084 129.077 64.7684 129.21C64.9351 129.337 65.1684 129.4 65.4684 129.4C65.6618 129.4 65.8451 129.377 66.0184 129.33C66.1984 129.277 66.3584 129.2 66.4984 129.1C66.6384 128.993 66.7484 128.863 66.8284 128.71C66.9084 128.55 66.9484 128.363 66.9484 128.15V126.77ZM69.7925 130V125H70.4425L70.5525 125.82C70.6925 125.513 70.8958 125.283 71.1625 125.13C71.4358 124.977 71.7658 124.9 72.1525 124.9C72.2392 124.9 72.3325 124.907 72.4325 124.92C72.5392 124.933 72.6292 124.96 72.7025 125L72.5625 125.73C72.4892 125.703 72.4092 125.683 72.3225 125.67C72.2358 125.657 72.1125 125.65 71.9525 125.65C71.7458 125.65 71.5358 125.71 71.3225 125.83C71.1158 125.95 70.9425 126.133 70.8025 126.38C70.6625 126.62 70.5925 126.927 70.5925 127.3V130H69.7925ZM85.7662 130H84.9162L84.2162 128.17H81.2262L80.5262 130H79.6862L82.2562 123.4H83.2062L85.7662 130ZM81.5162 127.42H83.9262L82.7162 124.17L81.5162 127.42ZM87.0577 132.1V125H87.7577L87.8277 126.22L87.7177 126.08C87.8044 125.847 87.9344 125.643 88.1077 125.47C88.2811 125.29 88.4911 125.15 88.7377 125.05C88.9844 124.95 89.2511 124.9 89.5377 124.9C89.9444 124.9 90.3177 125.003 90.6577 125.21C91.0044 125.417 91.2811 125.713 91.4877 126.1C91.6944 126.487 91.7977 126.953 91.7977 127.5C91.7977 128.04 91.6911 128.507 91.4777 128.9C91.2711 129.287 90.9944 129.583 90.6477 129.79C90.3011 129.997 89.9211 130.1 89.5077 130.1C89.0944 130.1 88.7311 130 88.4177 129.8C88.1111 129.593 87.8911 129.333 87.7577 129.02L87.8577 128.87V132.1H87.0577ZM89.4277 129.4C89.9211 129.4 90.3044 129.227 90.5777 128.88C90.8577 128.533 90.9977 128.073 90.9977 127.5C90.9977 126.927 90.8611 126.467 90.5877 126.12C90.3211 125.773 89.9444 125.6 89.4577 125.6C89.1377 125.6 88.8577 125.68 88.6177 125.84C88.3777 125.993 88.1911 126.213 88.0577 126.5C87.9244 126.78 87.8577 127.113 87.8577 127.5C87.8577 127.88 87.9211 128.213 88.0477 128.5C88.1811 128.787 88.3644 129.01 88.5977 129.17C88.8377 129.323 89.1144 129.4 89.4277 129.4ZM93.4273 130V125H94.0773L94.1873 125.82C94.3273 125.513 94.5306 125.283 94.7973 125.13C95.0706 124.977 95.4006 124.9 95.7873 124.9C95.8739 124.9 95.9673 124.907 96.0673 124.92C96.1739 124.933 96.2639 124.96 96.3373 125L96.1973 125.73C96.1239 125.703 96.0439 125.683 95.9573 125.67C95.8706 125.657 95.7473 125.65 95.5873 125.65C95.3806 125.65 95.1706 125.71 94.9573 125.83C94.7506 125.95 94.5773 126.133 94.4373 126.38C94.2973 126.62 94.2273 126.927 94.2273 127.3V130H93.4273ZM110.921 123.4V130H110.161V125.85L110.251 124.11H110.241L108.071 130H107.391L105.221 124.11H105.211L105.301 125.85V130H104.541V123.4H105.771L107.221 127.41L107.721 129.06H107.741L108.251 127.42L109.691 123.4H110.921ZM115.888 126.77C115.888 126.397 115.788 126.11 115.588 125.91C115.388 125.703 115.105 125.6 114.738 125.6C114.391 125.6 114.098 125.677 113.858 125.83C113.618 125.977 113.441 126.217 113.328 126.55L112.678 126.15C112.811 125.777 113.058 125.477 113.418 125.25C113.778 125.017 114.225 124.9 114.758 124.9C115.118 124.9 115.445 124.963 115.738 125.09C116.031 125.21 116.261 125.397 116.428 125.65C116.601 125.897 116.688 126.217 116.688 126.61V129.03C116.688 129.27 116.815 129.39 117.068 129.39C117.195 129.39 117.318 129.373 117.438 129.34L117.398 129.97C117.265 130.037 117.091 130.07 116.878 130.07C116.685 130.07 116.511 130.033 116.358 129.96C116.205 129.887 116.085 129.777 115.998 129.63C115.911 129.477 115.868 129.287 115.868 129.06V128.96L116.068 128.99C115.988 129.25 115.851 129.463 115.658 129.63C115.465 129.79 115.248 129.91 115.008 129.99C114.768 130.063 114.531 130.1 114.298 130.1C114.005 130.1 113.731 130.05 113.478 129.95C113.225 129.85 113.021 129.7 112.868 129.5C112.721 129.293 112.648 129.04 112.648 128.74C112.648 128.367 112.771 128.06 113.018 127.82C113.271 127.573 113.621 127.407 114.068 127.32L116.048 126.93V127.59L114.438 127.92C114.111 127.987 113.868 128.08 113.708 128.2C113.548 128.32 113.468 128.487 113.468 128.7C113.468 128.907 113.548 129.077 113.708 129.21C113.875 129.337 114.108 129.4 114.408 129.4C114.601 129.4 114.785 129.377 114.958 129.33C115.138 129.277 115.298 129.2 115.438 129.1C115.578 128.993 115.688 128.863 115.768 128.71C115.848 128.55 115.888 128.363 115.888 128.15V126.77ZM122.549 125L120.199 130.84C120.072 131.167 119.932 131.423 119.779 131.61C119.632 131.803 119.466 131.94 119.279 132.02C119.099 132.107 118.889 132.15 118.649 132.15C118.422 132.15 118.212 132.117 118.019 132.05C117.832 131.99 117.666 131.907 117.519 131.8L117.739 131.1C117.872 131.22 118.012 131.307 118.159 131.36C118.312 131.42 118.462 131.45 118.609 131.45C118.782 131.45 118.946 131.397 119.099 131.29C119.252 131.183 119.392 130.967 119.519 130.64L119.779 129.99L119.279 128.8L117.689 125H118.599L119.849 128.26L120.159 129.15L120.519 128.16L121.689 125H122.549ZM166.206 123.4V127.74C166.206 128.48 166.006 129.06 165.606 129.48C165.213 129.893 164.666 130.1 163.966 130.1C163.473 130.1 163.066 130.007 162.746 129.82C162.426 129.633 162.203 129.37 162.076 129.03C161.956 128.683 161.939 128.28 162.026 127.82L162.766 127.67C162.693 128.237 162.743 128.66 162.916 128.94C163.096 129.213 163.436 129.35 163.936 129.35C164.503 129.35 164.889 129.197 165.096 128.89C165.303 128.577 165.406 128.127 165.406 127.54V123.4H166.206ZM169.972 130.1C169.652 130.1 169.349 130.04 169.062 129.92C168.782 129.8 168.552 129.607 168.372 129.34C168.199 129.067 168.112 128.713 168.112 128.28V125H168.912V128.07C168.912 128.577 169.022 128.927 169.242 129.12C169.462 129.307 169.772 129.4 170.172 129.4C170.359 129.4 170.542 129.37 170.722 129.31C170.902 129.243 171.062 129.143 171.202 129.01C171.349 128.87 171.462 128.693 171.542 128.48C171.629 128.267 171.672 128.013 171.672 127.72V125H172.472V130H171.772L171.722 129.24C171.549 129.54 171.312 129.76 171.012 129.9C170.719 130.033 170.372 130.1 169.972 130.1ZM175.194 122.7V128.73C175.194 128.983 175.241 129.16 175.334 129.26C175.427 129.353 175.577 129.4 175.784 129.4C175.917 129.4 176.027 129.39 176.114 129.37C176.201 129.35 176.317 129.313 176.464 129.26L176.334 129.96C176.227 130.007 176.111 130.04 175.984 130.06C175.857 130.087 175.727 130.1 175.594 130.1C175.187 130.1 174.884 129.99 174.684 129.77C174.491 129.55 174.394 129.213 174.394 128.76V122.7H175.194Z" fill="#6D7589"/>
<path d="M137.686 123.4V127.74C137.686 128.48 137.486 129.06 137.086 129.48C136.693 129.893 136.146 130.1 135.446 130.1C134.953 130.1 134.546 130.007 134.226 129.82C133.906 129.633 133.683 129.37 133.556 129.03C133.436 128.683 133.419 128.28 133.506 127.82L134.246 127.67C134.173 128.237 134.223 128.66 134.396 128.94C134.576 129.213 134.916 129.35 135.416 129.35C135.983 129.35 136.369 129.197 136.576 128.89C136.783 128.577 136.886 128.127 136.886 127.54V123.4H137.686ZM141.452 130.1C141.132 130.1 140.829 130.04 140.542 129.92C140.262 129.8 140.032 129.607 139.852 129.34C139.679 129.067 139.592 128.713 139.592 128.28V125H140.392V128.07C140.392 128.577 140.502 128.927 140.722 129.12C140.942 129.307 141.252 129.4 141.652 129.4C141.839 129.4 142.022 129.37 142.202 129.31C142.382 129.243 142.542 129.143 142.682 129.01C142.829 128.87 142.942 128.693 143.022 128.48C143.109 128.267 143.152 128.013 143.152 127.72V125H143.952V130H143.252L143.202 129.24C143.029 129.54 142.792 129.76 142.492 129.9C142.199 130.033 141.852 130.1 141.452 130.1ZM145.914 130V125H146.614L146.684 126.12L146.554 126.01C146.661 125.743 146.804 125.53 146.984 125.37C147.164 125.203 147.371 125.083 147.604 125.01C147.844 124.937 148.091 124.9 148.344 124.9C148.704 124.9 149.031 124.97 149.324 125.11C149.617 125.243 149.851 125.45 150.024 125.73C150.204 126.01 150.294 126.367 150.294 126.8V130H149.494V127.08C149.494 126.527 149.374 126.143 149.134 125.93C148.901 125.71 148.611 125.6 148.264 125.6C148.024 125.6 147.784 125.657 147.544 125.77C147.304 125.883 147.104 126.067 146.944 126.32C146.791 126.573 146.714 126.913 146.714 127.34V130H145.914Z" fill="#101828"/>
<path d="M8.74 35.9C8.58 36.38 8.34 36.788 8.02 37.124C7.7 37.452 7.324 37.7 6.892 37.868C6.46 38.036 5.984 38.12 5.464 38.12C4.704 38.12 4.044 37.956 3.484 37.628C2.924 37.3 2.492 36.832 2.188 36.224C1.884 35.616 1.732 34.888 1.732 34.04C1.732 33.192 1.884 32.464 2.188 31.856C2.492 31.248 2.924 30.78 3.484 30.452C4.044 30.124 4.7 29.96 5.452 29.96C5.972 29.96 6.44 30.032 6.856 30.176C7.28 30.32 7.64 30.536 7.936 30.824C8.232 31.112 8.46 31.472 8.62 31.904L7.408 32.444C7.248 31.972 7.016 31.628 6.712 31.412C6.408 31.188 6.012 31.076 5.524 31.076C5.036 31.076 4.608 31.192 4.24 31.424C3.872 31.656 3.584 31.992 3.376 32.432C3.176 32.872 3.076 33.408 3.076 34.04C3.076 34.664 3.172 35.2 3.364 35.648C3.556 36.088 3.832 36.424 4.192 36.656C4.552 36.888 4.984 37.004 5.488 37.004C5.976 37.004 6.396 36.88 6.748 36.632C7.108 36.376 7.364 35.996 7.516 35.492L8.74 35.9ZM12.8031 31.88C13.3871 31.88 13.9031 32.004 14.3511 32.252C14.7991 32.5 15.1471 32.86 15.3951 33.332C15.6511 33.796 15.7791 34.352 15.7791 35C15.7791 35.648 15.6511 36.208 15.3951 36.68C15.1471 37.144 14.7991 37.5 14.3511 37.748C13.9031 37.996 13.3871 38.12 12.8031 38.12C12.2191 38.12 11.7031 37.996 11.2551 37.748C10.8071 37.5 10.4551 37.144 10.1991 36.68C9.94313 36.208 9.81513 35.648 9.81513 35C9.81513 34.352 9.94313 33.796 10.1991 33.332C10.4551 32.86 10.8071 32.5 11.2551 32.252C11.7031 32.004 12.2191 31.88 12.8031 31.88ZM12.8031 32.888C12.4431 32.888 12.1351 32.972 11.8791 33.14C11.6311 33.3 11.4391 33.536 11.3031 33.848C11.1671 34.16 11.0991 34.544 11.0991 35C11.0991 35.448 11.1671 35.832 11.3031 36.152C11.4391 36.464 11.6311 36.704 11.8791 36.872C12.1351 37.032 12.4431 37.112 12.8031 37.112C13.1631 37.112 13.4671 37.032 13.7151 36.872C13.9631 36.704 14.1551 36.464 14.2911 36.152C14.4271 35.832 14.4951 35.448 14.4951 35C14.4951 34.544 14.4271 34.16 14.2911 33.848C14.1551 33.536 13.9631 33.3 13.7151 33.14C13.4671 32.972 13.1631 32.888 12.8031 32.888ZM19.5304 38.12C19.1384 38.12 18.7744 38.048 18.4384 37.904C18.1104 37.76 17.8464 37.528 17.6464 37.208C17.4464 36.888 17.3464 36.472 17.3464 35.96V32H18.6304V35.636C18.6304 36.18 18.7464 36.556 18.9784 36.764C19.2104 36.964 19.5344 37.064 19.9504 37.064C20.1504 37.064 20.3424 37.032 20.5264 36.968C20.7184 36.896 20.8904 36.788 21.0424 36.644C21.1944 36.492 21.3104 36.3 21.3904 36.068C21.4784 35.836 21.5224 35.564 21.5224 35.252V32H22.8064V38H21.6784L21.6184 37.028C21.4104 37.404 21.1304 37.68 20.7784 37.856C20.4264 38.032 20.0104 38.12 19.5304 38.12ZM24.8124 38V32H25.9044L26.0244 33.08C26.1844 32.688 26.4204 32.392 26.7324 32.192C27.0524 31.984 27.4444 31.88 27.9084 31.88C28.0284 31.88 28.1484 31.892 28.2684 31.916C28.3884 31.932 28.4884 31.96 28.5684 32L28.3884 33.128C28.3004 33.096 28.2004 33.072 28.0884 33.056C27.9844 33.032 27.8404 33.02 27.6564 33.02C27.4084 33.02 27.1644 33.088 26.9244 33.224C26.6844 33.352 26.4844 33.548 26.3244 33.812C26.1724 34.076 26.0964 34.412 26.0964 34.82V38H24.8124ZM31.8502 38.12C31.2502 38.12 30.7022 38.004 30.2062 37.772C29.7102 37.54 29.3182 37.212 29.0302 36.788L29.9182 36.02C30.0942 36.348 30.3462 36.612 30.6742 36.812C31.0102 37.004 31.4102 37.1 31.8742 37.1C32.2422 37.1 32.5342 37.036 32.7502 36.908C32.9662 36.78 33.0742 36.6 33.0742 36.368C33.0742 36.216 33.0222 36.084 32.9182 35.972C32.8222 35.852 32.6342 35.76 32.3542 35.696L31.0942 35.432C30.4542 35.304 29.9982 35.1 29.7262 34.82C29.4542 34.532 29.3182 34.168 29.3182 33.728C29.3182 33.4 29.4142 33.096 29.6062 32.816C29.7982 32.536 30.0782 32.312 30.4462 32.144C30.8222 31.968 31.2702 31.88 31.7902 31.88C32.3902 31.88 32.9022 31.988 33.3262 32.204C33.7502 32.412 34.0742 32.712 34.2982 33.104L33.4102 33.848C33.2582 33.528 33.0342 33.292 32.7382 33.14C32.4422 32.98 32.1342 32.9 31.8142 32.9C31.5582 32.9 31.3382 32.932 31.1542 32.996C30.9702 33.06 30.8302 33.148 30.7342 33.26C30.6382 33.372 30.5902 33.504 30.5902 33.656C30.5902 33.816 30.6502 33.956 30.7702 34.076C30.8902 34.196 31.1062 34.288 31.4182 34.352L32.7862 34.64C33.3622 34.752 33.7662 34.944 33.9982 35.216C34.2382 35.48 34.3582 35.804 34.3582 36.188C34.3582 36.572 34.2582 36.912 34.0582 37.208C33.8582 37.496 33.5702 37.72 33.1942 37.88C32.8182 38.04 32.3702 38.12 31.8502 38.12ZM38.5501 38.12C37.9501 38.12 37.4221 37.996 36.9661 37.748C36.5101 37.5 36.1541 37.144 35.8981 36.68C35.6501 36.208 35.5261 35.648 35.5261 35C35.5261 34.352 35.6501 33.796 35.8981 33.332C36.1541 32.86 36.5061 32.5 36.9541 32.252C37.4021 32.004 37.9101 31.88 38.4781 31.88C39.0621 31.88 39.5581 32 39.9661 32.24C40.3741 32.48 40.6861 32.808 40.9021 33.224C41.1181 33.64 41.2261 34.112 41.2261 34.64C41.2261 34.784 41.2221 34.92 41.2141 35.048C41.2061 35.176 41.1941 35.288 41.1781 35.384H36.3541V34.4H40.6141L39.9781 34.592C39.9781 34.048 39.8421 33.632 39.5701 33.344C39.2981 33.048 38.9261 32.9 38.4541 32.9C38.1101 32.9 37.8101 32.98 37.5541 33.14C37.2981 33.3 37.1021 33.54 36.9661 33.86C36.8301 34.172 36.7621 34.556 36.7621 35.012C36.7621 35.46 36.8341 35.84 36.9781 36.152C37.1221 36.464 37.3261 36.7 37.5901 36.86C37.8541 37.02 38.1661 37.1 38.5261 37.1C38.9261 37.1 39.2501 37.024 39.4981 36.872C39.7461 36.72 39.9421 36.508 40.0861 36.236L41.1061 36.716C40.9621 37.004 40.7661 37.256 40.5181 37.472C40.2781 37.68 39.9901 37.84 39.6541 37.952C39.3181 38.064 38.9501 38.12 38.5501 38.12ZM4.6 45.88C5.184 45.88 5.7 46.004 6.148 46.252C6.596 46.5 6.944 46.86 7.192 47.332C7.448 47.796 7.576 48.352 7.576 49C7.576 49.648 7.448 50.208 7.192 50.68C6.944 51.144 6.596 51.5 6.148 51.748C5.7 51.996 5.184 52.12 4.6 52.12C4.016 52.12 3.5 51.996 3.052 51.748C2.604 51.5 2.252 51.144 1.996 50.68C1.74 50.208 1.612 49.648 1.612 49C1.612 48.352 1.74 47.796 1.996 47.332C2.252 46.86 2.604 46.5 3.052 46.252C3.5 46.004 4.016 45.88 4.6 45.88ZM4.6 46.888C4.24 46.888 3.932 46.972 3.676 47.14C3.428 47.3 3.236 47.536 3.1 47.848C2.964 48.16 2.896 48.544 2.896 49C2.896 49.448 2.964 49.832 3.1 50.152C3.236 50.464 3.428 50.704 3.676 50.872C3.932 51.032 4.24 51.112 4.6 51.112C4.96 51.112 5.264 51.032 5.512 50.872C5.76 50.704 5.952 50.464 6.088 50.152C6.224 49.832 6.292 49.448 6.292 49C6.292 48.544 6.224 48.16 6.088 47.848C5.952 47.536 5.76 47.3 5.512 47.14C5.264 46.972 4.96 46.888 4.6 46.888ZM13.1042 46H14.4482L12.0602 52H10.6562L8.25616 46H9.66016L11.3642 50.884L13.1042 46ZM18.1477 52.12C17.5477 52.12 17.0197 51.996 16.5637 51.748C16.1077 51.5 15.7517 51.144 15.4957 50.68C15.2477 50.208 15.1237 49.648 15.1237 49C15.1237 48.352 15.2477 47.796 15.4957 47.332C15.7517 46.86 16.1037 46.5 16.5517 46.252C16.9997 46.004 17.5077 45.88 18.0757 45.88C18.6597 45.88 19.1557 46 19.5637 46.24C19.9717 46.48 20.2837 46.808 20.4997 47.224C20.7157 47.64 20.8237 48.112 20.8237 48.64C20.8237 48.784 20.8197 48.92 20.8117 49.048C20.8037 49.176 20.7917 49.288 20.7757 49.384H15.9517V48.4H20.2117L19.5757 48.592C19.5757 48.048 19.4397 47.632 19.1677 47.344C18.8957 47.048 18.5237 46.9 18.0517 46.9C17.7077 46.9 17.4077 46.98 17.1517 47.14C16.8957 47.3 16.6997 47.54 16.5637 47.86C16.4277 48.172 16.3597 48.556 16.3597 49.012C16.3597 49.46 16.4317 49.84 16.5757 50.152C16.7197 50.464 16.9237 50.7 17.1877 50.86C17.4517 51.02 17.7637 51.1 18.1237 51.1C18.5237 51.1 18.8477 51.024 19.0957 50.872C19.3437 50.72 19.5397 50.508 19.6837 50.236L20.7037 50.716C20.5597 51.004 20.3637 51.256 20.1157 51.472C19.8757 51.68 19.5877 51.84 19.2517 51.952C18.9157 52.064 18.5477 52.12 18.1477 52.12ZM22.4452 52V46H23.5372L23.6572 47.08C23.8172 46.688 24.0532 46.392 24.3652 46.192C24.6852 45.984 25.0772 45.88 25.5412 45.88C25.6612 45.88 25.7812 45.892 25.9012 45.916C26.0212 45.932 26.1212 45.96 26.2012 46L26.0212 47.128C25.9332 47.096 25.8332 47.072 25.7212 47.056C25.6172 47.032 25.4732 47.02 25.2892 47.02C25.0412 47.02 24.7972 47.088 24.5572 47.224C24.3172 47.352 24.1172 47.548 23.9572 47.812C23.8052 48.076 23.7292 48.412 23.7292 48.82V52H22.4452ZM31.362 46H32.706L30.318 52H28.914L26.514 46H27.918L29.622 50.884L31.362 46ZM34.4487 44.992C34.1687 44.992 33.9527 44.924 33.8007 44.788C33.6567 44.644 33.5847 44.444 33.5847 44.188C33.5847 43.932 33.6567 43.736 33.8007 43.6C33.9527 43.464 34.1687 43.396 34.4487 43.396C34.7207 43.396 34.9287 43.464 35.0727 43.6C35.2247 43.736 35.3007 43.932 35.3007 44.188C35.3007 44.444 35.2247 44.644 35.0727 44.788C34.9287 44.924 34.7207 44.992 34.4487 44.992ZM35.0847 46V52H33.8007V46H35.0847ZM39.7337 52.12C39.1337 52.12 38.6057 51.996 38.1497 51.748C37.6937 51.5 37.3377 51.144 37.0817 50.68C36.8337 50.208 36.7097 49.648 36.7097 49C36.7097 48.352 36.8337 47.796 37.0817 47.332C37.3377 46.86 37.6897 46.5 38.1377 46.252C38.5857 46.004 39.0937 45.88 39.6617 45.88C40.2457 45.88 40.7417 46 41.1497 46.24C41.5577 46.48 41.8697 46.808 42.0857 47.224C42.3017 47.64 42.4097 48.112 42.4097 48.64C42.4097 48.784 42.4057 48.92 42.3977 49.048C42.3897 49.176 42.3777 49.288 42.3617 49.384H37.5377V48.4H41.7977L41.1617 48.592C41.1617 48.048 41.0257 47.632 40.7537 47.344C40.4817 47.048 40.1097 46.9 39.6377 46.9C39.2937 46.9 38.9937 46.98 38.7377 47.14C38.4817 47.3 38.2857 47.54 38.1497 47.86C38.0137 48.172 37.9457 48.556 37.9457 49.012C37.9457 49.46 38.0177 49.84 38.1617 50.152C38.3057 50.464 38.5097 50.7 38.7737 50.86C39.0377 51.02 39.3497 51.1 39.7097 51.1C40.1097 51.1 40.4337 51.024 40.6817 50.872C40.9297 50.72 41.1257 50.508 41.2697 50.236L42.2897 50.716C42.1457 51.004 41.9497 51.256 41.7017 51.472C41.4617 51.68 41.1737 51.84 40.8377 51.952C40.5017 52.064 40.1337 52.12 39.7337 52.12ZM51.5108 46H52.9028L50.8868 52H49.4828L47.9708 47.548L46.5428 52H45.1388L43.1348 46H44.5148L45.8828 50.74L47.3708 46H48.6548L50.1428 50.74L51.5108 46Z" fill="#101828"/>
<path d="M102.188 41.136V47.208H101.072V41.136H102.188ZM104.576 43.632V44.7H98.672V43.632H104.576ZM107.584 48V42.564C107.584 42.404 107.584 42.24 107.584 42.072C107.592 41.896 107.6 41.712 107.608 41.52C107.336 41.784 107.024 42.012 106.672 42.204C106.328 42.388 105.972 42.52 105.604 42.6L105.364 41.484C105.532 41.46 105.728 41.404 105.952 41.316C106.176 41.228 106.408 41.116 106.648 40.98C106.888 40.844 107.108 40.7 107.308 40.548C107.508 40.388 107.664 40.232 107.776 40.08H108.856V48H107.584ZM113.421 48.12C112.717 48.12 112.137 47.968 111.681 47.664C111.233 47.36 110.877 46.92 110.613 46.344L111.813 45.72C111.933 46.104 112.113 46.42 112.353 46.668C112.601 46.908 112.965 47.028 113.445 47.028C113.781 47.028 114.065 46.968 114.297 46.848C114.537 46.72 114.721 46.544 114.849 46.32C114.977 46.088 115.041 45.812 115.041 45.492C115.041 45.156 114.981 44.876 114.861 44.652C114.741 44.428 114.569 44.26 114.345 44.148C114.121 44.028 113.841 43.968 113.505 43.968C113.273 43.968 113.057 43.992 112.857 44.04C112.657 44.088 112.477 44.164 112.317 44.268C112.157 44.364 112.017 44.492 111.897 44.652L110.841 44.448L111.321 40.08H115.929V41.184H112.341L112.053 43.416L112.029 43.548H112.053C112.237 43.348 112.473 43.192 112.761 43.08C113.057 42.968 113.405 42.912 113.805 42.912C114.317 42.912 114.757 43.02 115.125 43.236C115.493 43.444 115.781 43.736 115.989 44.112C116.197 44.488 116.301 44.924 116.301 45.42C116.301 45.852 116.229 46.236 116.085 46.572C115.941 46.908 115.737 47.192 115.473 47.424C115.209 47.656 114.901 47.832 114.549 47.952C114.205 48.064 113.829 48.12 113.421 48.12ZM119.097 48L124.281 40.08H125.385L120.213 48H119.097ZM119.409 39.96C119.817 39.96 120.169 40.052 120.465 40.236C120.769 40.42 121.001 40.676 121.161 41.004C121.329 41.332 121.413 41.72 121.413 42.168C121.413 42.608 121.329 42.996 121.161 43.332C121.001 43.66 120.769 43.916 120.465 44.1C120.169 44.284 119.817 44.376 119.409 44.376C119.009 44.376 118.657 44.284 118.353 44.1C118.049 43.916 117.813 43.66 117.645 43.332C117.485 42.996 117.405 42.608 117.405 42.168C117.405 41.72 117.485 41.332 117.645 41.004C117.813 40.676 118.049 40.42 118.353 40.236C118.657 40.052 119.009 39.96 119.409 39.96ZM119.409 40.896C119.209 40.896 119.037 40.948 118.893 41.052C118.749 41.148 118.641 41.292 118.569 41.484C118.497 41.668 118.461 41.896 118.461 42.168C118.461 42.432 118.497 42.66 118.569 42.852C118.641 43.044 118.749 43.188 118.893 43.284C119.037 43.38 119.209 43.428 119.409 43.428C119.617 43.428 119.793 43.38 119.937 43.284C120.081 43.188 120.189 43.044 120.261 42.852C120.333 42.66 120.369 42.432 120.369 42.168C120.369 41.896 120.333 41.668 120.261 41.484C120.189 41.292 120.081 41.148 119.937 41.052C119.793 40.948 119.617 40.896 119.409 40.896ZM125.073 43.704C125.481 43.704 125.833 43.796 126.129 43.98C126.433 44.164 126.665 44.424 126.825 44.76C126.993 45.088 127.077 45.472 127.077 45.912C127.077 46.36 126.993 46.748 126.825 47.076C126.665 47.404 126.433 47.66 126.129 47.844C125.833 48.028 125.481 48.12 125.073 48.12C124.673 48.12 124.321 48.028 124.017 47.844C123.713 47.66 123.477 47.404 123.309 47.076C123.149 46.748 123.069 46.36 123.069 45.912C123.069 45.472 123.149 45.088 123.309 44.76C123.477 44.424 123.713 44.164 124.017 43.98C124.321 43.796 124.673 43.704 125.073 43.704ZM125.073 44.652C124.873 44.652 124.701 44.7 124.557 44.796C124.413 44.892 124.305 45.036 124.233 45.228C124.161 45.412 124.125 45.64 124.125 45.912C124.125 46.176 124.161 46.404 124.233 46.596C124.305 46.788 124.413 46.936 124.557 47.04C124.701 47.136 124.873 47.184 125.073 47.184C125.281 47.184 125.457 47.136 125.601 47.04C125.745 46.936 125.853 46.788 125.925 46.596C125.997 46.404 126.033 46.176 126.033 45.912C126.033 45.648 125.997 45.42 125.925 45.228C125.853 45.036 125.745 44.892 125.601 44.796C125.457 44.7 125.281 44.652 125.073 44.652Z" fill="#101828"/>
</svg>
