<svg width="244" height="201" viewBox="0 0 244 201" fill="none" xmlns="http://www.w3.org/2000/svg">
<g filter="url(#filter0_d_2_354)">
<rect x="21" y="17" width="206" height="163" rx="8" fill="white"/>
<rect x="36" y="31" width="105" height="18" rx="9" fill="#BEE1E6"/>
<path d="M58.6825 36.08V44H57.7705V39.02L57.8785 36.932H57.8665L55.2625 44H54.4465L51.8425 36.932H51.8305L51.9385 39.02V44H51.0265V36.08H52.5025L54.2425 40.892L54.8425 42.872H54.8665L55.4785 40.904L57.2065 36.08H58.6825ZM64.5223 40.124C64.5223 39.676 64.4023 39.332 64.1623 39.092C63.9223 38.844 63.5823 38.72 63.1423 38.72C62.7263 38.72 62.3743 38.812 62.0863 38.996C61.7983 39.172 61.5863 39.46 61.4503 39.86L60.6703 39.38C60.8303 38.932 61.1263 38.572 61.5583 38.3C61.9903 38.02 62.5263 37.88 63.1663 37.88C63.5983 37.88 63.9903 37.956 64.3423 38.108C64.6943 38.252 64.9703 38.476 65.1703 38.78C65.3783 39.076 65.4823 39.46 65.4823 39.932V42.836C65.4823 43.124 65.6343 43.268 65.9383 43.268C66.0903 43.268 66.2383 43.248 66.3823 43.208L66.3343 43.964C66.1743 44.044 65.9663 44.084 65.7103 44.084C65.4783 44.084 65.2703 44.04 65.0863 43.952C64.9023 43.864 64.7583 43.732 64.6543 43.556C64.5503 43.372 64.4983 43.144 64.4983 42.872V42.752L64.7383 42.788C64.6423 43.1 64.4783 43.356 64.2463 43.556C64.0143 43.748 63.7543 43.892 63.4663 43.988C63.1783 44.076 62.8943 44.12 62.6143 44.12C62.2623 44.12 61.9343 44.06 61.6303 43.94C61.3263 43.82 61.0823 43.64 60.8983 43.4C60.7223 43.152 60.6343 42.848 60.6343 42.488C60.6343 42.04 60.7823 41.672 61.0783 41.384C61.3823 41.088 61.8023 40.888 62.3383 40.784L64.7143 40.316V41.108L62.7823 41.504C62.3903 41.584 62.0983 41.696 61.9063 41.84C61.7143 41.984 61.6183 42.184 61.6183 42.44C61.6183 42.688 61.7143 42.892 61.9063 43.052C62.1063 43.204 62.3863 43.28 62.7463 43.28C62.9783 43.28 63.1983 43.252 63.4063 43.196C63.6223 43.132 63.8143 43.04 63.9823 42.92C64.1503 42.792 64.2823 42.636 64.3783 42.452C64.4743 42.26 64.5223 42.036 64.5223 41.78V40.124ZM67.8152 44V38H68.5952L68.7272 38.984C68.8952 38.616 69.1392 38.34 69.4592 38.156C69.7872 37.972 70.1832 37.88 70.6472 37.88C70.7512 37.88 70.8632 37.888 70.9832 37.904C71.1112 37.92 71.2192 37.952 71.3072 38L71.1392 38.876C71.0512 38.844 70.9552 38.82 70.8512 38.804C70.7472 38.788 70.5992 38.78 70.4072 38.78C70.1592 38.78 69.9072 38.852 69.6512 38.996C69.4032 39.14 69.1952 39.36 69.0272 39.656C68.8592 39.944 68.7752 40.312 68.7752 40.76V44H67.8152ZM77.9817 38L75.3897 40.592L75.1617 40.82L73.1937 42.788V41.588L76.7697 38H77.9817ZM73.6737 35.24V44H72.7137V35.24H73.6737ZM75.4737 40.1L78.1257 44H76.9617L74.6697 40.64L75.4737 40.1ZM81.8193 44.12C81.2513 44.12 80.7433 43.996 80.2953 43.748C79.8553 43.5 79.5113 43.144 79.2633 42.68C79.0153 42.208 78.8913 41.648 78.8913 41C78.8913 40.352 79.0153 39.796 79.2633 39.332C79.5113 38.86 79.8513 38.5 80.2833 38.252C80.7153 38.004 81.2073 37.88 81.7593 37.88C82.3193 37.88 82.7953 38 83.1873 38.24C83.5873 38.48 83.8913 38.808 84.0993 39.224C84.3073 39.632 84.4113 40.092 84.4113 40.604C84.4113 40.74 84.4073 40.864 84.3993 40.976C84.3913 41.088 84.3793 41.188 84.3633 41.276H79.5153V40.424H83.9433L83.4513 40.52C83.4513 39.944 83.2913 39.5 82.9713 39.188C82.6593 38.876 82.2473 38.72 81.7353 38.72C81.3433 38.72 81.0033 38.812 80.7153 38.996C80.4353 39.172 80.2153 39.432 80.0553 39.776C79.9033 40.112 79.8273 40.52 79.8273 41C79.8273 41.472 79.9073 41.88 80.0673 42.224C80.2273 42.568 80.4513 42.832 80.7393 43.016C81.0353 43.192 81.3873 43.28 81.7953 43.28C82.2353 43.28 82.5913 43.196 82.8633 43.028C83.1433 42.86 83.3673 42.632 83.5353 42.344L84.2913 42.788C84.1393 43.06 83.9433 43.296 83.7033 43.496C83.4713 43.696 83.1953 43.852 82.8753 43.964C82.5633 44.068 82.2113 44.12 81.8193 44.12ZM87.4773 36.296V42.344C87.4773 42.64 87.5613 42.86 87.7293 43.004C87.8973 43.148 88.1133 43.22 88.3773 43.22C88.6093 43.22 88.8093 43.18 88.9773 43.1C89.1453 43.02 89.2973 42.912 89.4333 42.776L89.7693 43.58C89.5853 43.748 89.3653 43.88 89.1093 43.976C88.8613 44.072 88.5733 44.12 88.2453 44.12C87.9413 44.12 87.6573 44.068 87.3933 43.964C87.1293 43.852 86.9173 43.68 86.7573 43.448C86.6053 43.208 86.5253 42.896 86.5173 42.512V36.56L87.4773 36.296ZM89.6613 38V38.828H85.3173V38H89.6613ZM97.9025 35.96C98.5985 35.96 99.1985 36.104 99.7025 36.392C100.207 36.672 100.627 37.088 100.963 37.64L100.159 38.264C99.8625 37.752 99.5265 37.392 99.1505 37.184C98.7825 36.968 98.3345 36.86 97.8065 36.86C97.3825 36.86 97.0305 36.92 96.7505 37.04C96.4785 37.16 96.2785 37.32 96.1505 37.52C96.0225 37.712 95.9585 37.932 95.9585 38.18C95.9585 38.46 96.0465 38.708 96.2225 38.924C96.3985 39.132 96.7505 39.296 97.2785 39.416L98.9945 39.8C99.7545 39.968 100.283 40.224 100.579 40.568C100.883 40.904 101.035 41.324 101.035 41.828C101.035 42.276 100.907 42.676 100.651 43.028C100.403 43.372 100.051 43.64 99.5945 43.832C99.1385 44.024 98.6025 44.12 97.9865 44.12C97.4105 44.12 96.9025 44.044 96.4625 43.892C96.0305 43.732 95.6585 43.52 95.3465 43.256C95.0345 42.992 94.7785 42.696 94.5785 42.368L95.4185 41.684C95.5705 41.988 95.7665 42.256 96.0065 42.488C96.2465 42.72 96.5345 42.9 96.8705 43.028C97.2145 43.156 97.6065 43.22 98.0465 43.22C98.4545 43.22 98.8065 43.172 99.1025 43.076C99.4065 42.972 99.6385 42.824 99.7985 42.632C99.9585 42.432 100.039 42.192 100.039 41.912C100.039 41.656 99.9545 41.428 99.7865 41.228C99.6185 41.02 99.3025 40.864 98.8385 40.76L96.9785 40.34C96.4905 40.228 96.0945 40.076 95.7905 39.884C95.4945 39.684 95.2785 39.452 95.1425 39.188C95.0145 38.916 94.9505 38.624 94.9505 38.312C94.9505 37.888 95.0665 37.5 95.2985 37.148C95.5385 36.788 95.8785 36.5 96.3185 36.284C96.7665 36.068 97.2945 35.96 97.9025 35.96ZM104.282 36.296V42.344C104.282 42.64 104.366 42.86 104.534 43.004C104.702 43.148 104.918 43.22 105.182 43.22C105.414 43.22 105.614 43.18 105.782 43.1C105.95 43.02 106.102 42.912 106.238 42.776L106.574 43.58C106.39 43.748 106.17 43.88 105.914 43.976C105.666 44.072 105.378 44.12 105.05 44.12C104.746 44.12 104.462 44.068 104.198 43.964C103.934 43.852 103.722 43.68 103.562 43.448C103.41 43.208 103.33 42.896 103.322 42.512V36.56L104.282 36.296ZM106.466 38V38.828H102.122V38H106.466ZM111.397 40.124C111.397 39.676 111.277 39.332 111.037 39.092C110.797 38.844 110.457 38.72 110.017 38.72C109.601 38.72 109.249 38.812 108.961 38.996C108.673 39.172 108.461 39.46 108.325 39.86L107.545 39.38C107.705 38.932 108.001 38.572 108.433 38.3C108.865 38.02 109.401 37.88 110.041 37.88C110.473 37.88 110.865 37.956 111.217 38.108C111.569 38.252 111.845 38.476 112.045 38.78C112.253 39.076 112.357 39.46 112.357 39.932V42.836C112.357 43.124 112.509 43.268 112.813 43.268C112.965 43.268 113.113 43.248 113.257 43.208L113.209 43.964C113.049 44.044 112.841 44.084 112.585 44.084C112.353 44.084 112.145 44.04 111.961 43.952C111.777 43.864 111.633 43.732 111.529 43.556C111.425 43.372 111.373 43.144 111.373 42.872V42.752L111.613 42.788C111.517 43.1 111.353 43.356 111.121 43.556C110.889 43.748 110.629 43.892 110.341 43.988C110.053 44.076 109.769 44.12 109.489 44.12C109.137 44.12 108.809 44.06 108.505 43.94C108.201 43.82 107.957 43.64 107.773 43.4C107.597 43.152 107.509 42.848 107.509 42.488C107.509 42.04 107.657 41.672 107.953 41.384C108.257 41.088 108.677 40.888 109.213 40.784L111.589 40.316V41.108L109.657 41.504C109.265 41.584 108.973 41.696 108.781 41.84C108.589 41.984 108.493 42.184 108.493 42.44C108.493 42.688 108.589 42.892 108.781 43.052C108.981 43.204 109.261 43.28 109.621 43.28C109.853 43.28 110.073 43.252 110.281 43.196C110.497 43.132 110.689 43.04 110.857 42.92C111.025 42.792 111.157 42.636 111.253 42.452C111.349 42.26 111.397 42.036 111.397 41.78V40.124ZM115.872 36.296V42.344C115.872 42.64 115.956 42.86 116.124 43.004C116.292 43.148 116.508 43.22 116.772 43.22C117.004 43.22 117.204 43.18 117.372 43.1C117.54 43.02 117.692 42.912 117.828 42.776L118.164 43.58C117.98 43.748 117.76 43.88 117.504 43.976C117.256 44.072 116.968 44.12 116.64 44.12C116.336 44.12 116.052 44.068 115.788 43.964C115.524 43.852 115.312 43.68 115.152 43.448C115 43.208 114.92 42.896 114.912 42.512V36.56L115.872 36.296ZM118.056 38V38.828H113.712V38H118.056ZM119.963 36.848C119.747 36.848 119.571 36.784 119.435 36.656C119.307 36.52 119.243 36.344 119.243 36.128C119.243 35.912 119.307 35.74 119.435 35.612C119.571 35.476 119.747 35.408 119.963 35.408C120.179 35.408 120.351 35.476 120.479 35.612C120.615 35.74 120.683 35.912 120.683 36.128C120.683 36.344 120.615 36.52 120.479 36.656C120.351 36.784 120.179 36.848 119.963 36.848ZM120.443 38V44H119.483V38H120.443ZM125.155 37.88C125.571 37.88 125.935 37.944 126.247 38.072C126.567 38.2 126.843 38.384 127.075 38.624C127.307 38.864 127.495 39.148 127.639 39.476L126.727 39.908C126.599 39.524 126.403 39.232 126.139 39.032C125.883 38.824 125.547 38.72 125.131 38.72C124.731 38.72 124.387 38.812 124.099 38.996C123.811 39.172 123.591 39.432 123.439 39.776C123.287 40.112 123.211 40.52 123.211 41C123.211 41.472 123.287 41.88 123.439 42.224C123.591 42.568 123.811 42.832 124.099 43.016C124.387 43.192 124.731 43.28 125.131 43.28C125.443 43.28 125.711 43.232 125.935 43.136C126.167 43.04 126.355 42.9 126.499 42.716C126.651 42.532 126.755 42.308 126.811 42.044L127.699 42.356C127.563 42.724 127.375 43.04 127.135 43.304C126.903 43.568 126.619 43.772 126.283 43.916C125.955 44.052 125.579 44.12 125.155 44.12C124.595 44.12 124.095 43.996 123.655 43.748C123.215 43.5 122.871 43.144 122.623 42.68C122.375 42.208 122.251 41.648 122.251 41C122.251 40.352 122.375 39.796 122.623 39.332C122.871 38.86 123.215 38.5 123.655 38.252C124.095 38.004 124.595 37.88 125.155 37.88Z" fill="#006D77"/>
<circle cx="44.5" cy="40.5" r="2.5" fill="#006D77"/>
<path d="M36 123.702C47.6249 125.181 51 121.031 52.3636 113.686C60.5455 99.6643 82.3636 98.3289 90.5455 105.006C104.182 122.367 110.318 125.705 119.182 107.009C132.907 88.028 136.899 87.6137 143.727 96.9934C153.086 103.131 155.245 105.271 156.682 113.019C158.727 117.025 163.309 115.708 164.864 109.68C181 84.9993 189 83 204 96.9935" stroke="#101828" stroke-width="2" stroke-linecap="round"/>
<circle cx="153.5" cy="104.5" r="3.85" fill="white" stroke="#006D77" stroke-width="1.3"/>
<rect x="164" y="151" width="26" height="13" rx="6.5" fill="#AFEAE4"/>
<path d="M41.0895 154.4V158.74C41.0895 159.48 40.8895 160.06 40.4895 160.48C40.0961 160.893 39.5495 161.1 38.8495 161.1C38.3561 161.1 37.9495 161.007 37.6295 160.82C37.3095 160.633 37.0861 160.37 36.9595 160.03C36.8395 159.683 36.8228 159.28 36.9095 158.82L37.6495 158.67C37.5761 159.237 37.6261 159.66 37.7995 159.94C37.9795 160.213 38.3195 160.35 38.8195 160.35C39.3861 160.35 39.7728 160.197 39.9795 159.89C40.1861 159.577 40.2895 159.127 40.2895 158.54V154.4H41.0895ZM45.8777 157.77C45.8777 157.397 45.7777 157.11 45.5777 156.91C45.3777 156.703 45.0944 156.6 44.7277 156.6C44.3811 156.6 44.0877 156.677 43.8477 156.83C43.6077 156.977 43.4311 157.217 43.3177 157.55L42.6677 157.15C42.8011 156.777 43.0477 156.477 43.4077 156.25C43.7677 156.017 44.2144 155.9 44.7477 155.9C45.1077 155.9 45.4344 155.963 45.7277 156.09C46.0211 156.21 46.2511 156.397 46.4177 156.65C46.5911 156.897 46.6777 157.217 46.6777 157.61V160.03C46.6777 160.27 46.8044 160.39 47.0577 160.39C47.1844 160.39 47.3077 160.373 47.4277 160.34L47.3877 160.97C47.2544 161.037 47.0811 161.07 46.8677 161.07C46.6744 161.07 46.5011 161.033 46.3477 160.96C46.1944 160.887 46.0744 160.777 45.9877 160.63C45.9011 160.477 45.8577 160.287 45.8577 160.06V159.96L46.0577 159.99C45.9777 160.25 45.8411 160.463 45.6477 160.63C45.4544 160.79 45.2377 160.91 44.9977 160.99C44.7577 161.063 44.5211 161.1 44.2877 161.1C43.9944 161.1 43.7211 161.05 43.4677 160.95C43.2144 160.85 43.0111 160.7 42.8577 160.5C42.7111 160.293 42.6377 160.04 42.6377 159.74C42.6377 159.367 42.7611 159.06 43.0077 158.82C43.2611 158.573 43.6111 158.407 44.0577 158.32L46.0377 157.93V158.59L44.4277 158.92C44.1011 158.987 43.8577 159.08 43.6977 159.2C43.5377 159.32 43.4577 159.487 43.4577 159.7C43.4577 159.907 43.5377 160.077 43.6977 160.21C43.8644 160.337 44.0977 160.4 44.3977 160.4C44.5911 160.4 44.7744 160.377 44.9477 160.33C45.1277 160.277 45.2877 160.2 45.4277 160.1C45.5677 159.993 45.6777 159.863 45.7577 159.71C45.8377 159.55 45.8777 159.363 45.8777 159.15V157.77ZM48.7218 161V156H49.4218L49.4918 157.12L49.3618 157.01C49.4685 156.743 49.6118 156.53 49.7918 156.37C49.9718 156.203 50.1785 156.083 50.4118 156.01C50.6518 155.937 50.8985 155.9 51.1518 155.9C51.5118 155.9 51.8385 155.97 52.1318 156.11C52.4251 156.243 52.6585 156.45 52.8318 156.73C53.0118 157.01 53.1018 157.367 53.1018 157.8V161H52.3018V158.08C52.3018 157.527 52.1818 157.143 51.9418 156.93C51.7085 156.71 51.4185 156.6 51.0718 156.6C50.8318 156.6 50.5918 156.657 50.3518 156.77C50.1118 156.883 49.9118 157.067 49.7518 157.32C49.5985 157.573 49.5218 157.913 49.5218 158.34V161H48.7218ZM70.3078 155.15H66.4878V157.28H69.4678V158.03H66.4878V161H65.6878V154.4H70.3078V155.15ZM73.2845 161.1C72.8111 161.1 72.3878 160.997 72.0145 160.79C71.6478 160.583 71.3611 160.287 71.1545 159.9C70.9478 159.507 70.8445 159.04 70.8445 158.5C70.8445 157.96 70.9478 157.497 71.1545 157.11C71.3611 156.717 71.6445 156.417 72.0045 156.21C72.3645 156.003 72.7745 155.9 73.2345 155.9C73.7011 155.9 74.0978 156 74.4245 156.2C74.7578 156.4 75.0111 156.673 75.1845 157.02C75.3578 157.36 75.4445 157.743 75.4445 158.17C75.4445 158.283 75.4411 158.387 75.4345 158.48C75.4278 158.573 75.4178 158.657 75.4045 158.73H71.3645V158.02H75.0545L74.6445 158.1C74.6445 157.62 74.5111 157.25 74.2445 156.99C73.9845 156.73 73.6411 156.6 73.2145 156.6C72.8878 156.6 72.6045 156.677 72.3645 156.83C72.1311 156.977 71.9478 157.193 71.8145 157.48C71.6878 157.76 71.6245 158.1 71.6245 158.5C71.6245 158.893 71.6911 159.233 71.8245 159.52C71.9578 159.807 72.1445 160.027 72.3845 160.18C72.6311 160.327 72.9245 160.4 73.2645 160.4C73.6311 160.4 73.9278 160.33 74.1545 160.19C74.3878 160.05 74.5745 159.86 74.7145 159.62L75.3445 159.99C75.2178 160.217 75.0545 160.413 74.8545 160.58C74.6611 160.747 74.4311 160.877 74.1645 160.97C73.9045 161.057 73.6111 161.1 73.2845 161.1ZM79.5159 161.1C79.2359 161.1 78.9759 161.05 78.7359 160.95C78.4959 160.85 78.2893 160.71 78.1159 160.53C77.9426 160.35 77.8126 160.147 77.7259 159.92L77.8359 159.78L77.7659 161H77.0659V153.7H77.8659V157.13L77.7659 156.98C77.8993 156.667 78.1226 156.41 78.4359 156.21C78.7559 156.003 79.1193 155.9 79.5259 155.9C79.9393 155.9 80.3193 156.003 80.6659 156.21C81.0126 156.417 81.2893 156.713 81.4959 157.1C81.7026 157.487 81.8059 157.953 81.8059 158.5C81.8059 159.04 81.6993 159.507 81.4859 159.9C81.2793 160.287 81.0026 160.583 80.6559 160.79C80.3093 160.997 79.9293 161.1 79.5159 161.1ZM79.4359 160.4C79.9293 160.4 80.3126 160.227 80.5859 159.88C80.8659 159.533 81.0059 159.073 81.0059 158.5C81.0059 157.927 80.8693 157.467 80.5959 157.12C80.3226 156.773 79.9393 156.6 79.4459 156.6C79.1326 156.6 78.8559 156.68 78.6159 156.84C78.3826 157 78.1993 157.223 78.0659 157.51C77.9326 157.797 77.8659 158.133 77.8659 158.52C77.8659 158.9 77.9293 159.233 78.0559 159.52C78.1893 159.8 78.3726 160.017 78.6059 160.17C78.8459 160.323 79.1226 160.4 79.4359 160.4ZM96.9819 154.4V161H96.2219V156.85L96.3119 155.11H96.3019L94.1319 161H93.4519L91.2819 155.11H91.2719L91.3619 156.85V161H90.6019V154.4H91.8319L93.2819 158.41L93.7819 160.06H93.8019L94.3119 158.42L95.7519 154.4H96.9819ZM101.948 157.77C101.948 157.397 101.848 157.11 101.648 156.91C101.448 156.703 101.165 156.6 100.798 156.6C100.452 156.6 100.158 156.677 99.9184 156.83C99.6784 156.977 99.5018 157.217 99.3884 157.55L98.7384 157.15C98.8718 156.777 99.1184 156.477 99.4784 156.25C99.8384 156.017 100.285 155.9 100.818 155.9C101.178 155.9 101.505 155.963 101.798 156.09C102.092 156.21 102.322 156.397 102.488 156.65C102.662 156.897 102.748 157.217 102.748 157.61V160.03C102.748 160.27 102.875 160.39 103.128 160.39C103.255 160.39 103.378 160.373 103.498 160.34L103.458 160.97C103.325 161.037 103.152 161.07 102.938 161.07C102.745 161.07 102.572 161.033 102.418 160.96C102.265 160.887 102.145 160.777 102.058 160.63C101.972 160.477 101.928 160.287 101.928 160.06V159.96L102.128 159.99C102.048 160.25 101.912 160.463 101.718 160.63C101.525 160.79 101.308 160.91 101.068 160.99C100.828 161.063 100.592 161.1 100.358 161.1C100.065 161.1 99.7918 161.05 99.5384 160.95C99.2851 160.85 99.0818 160.7 98.9284 160.5C98.7818 160.293 98.7084 160.04 98.7084 159.74C98.7084 159.367 98.8318 159.06 99.0784 158.82C99.3318 158.573 99.6818 158.407 100.128 158.32L102.108 157.93V158.59L100.498 158.92C100.172 158.987 99.9284 159.08 99.7684 159.2C99.6084 159.32 99.5284 159.487 99.5284 159.7C99.5284 159.907 99.6084 160.077 99.7684 160.21C99.9351 160.337 100.168 160.4 100.468 160.4C100.662 160.4 100.845 160.377 101.018 160.33C101.198 160.277 101.358 160.2 101.498 160.1C101.638 159.993 101.748 159.863 101.828 159.71C101.908 159.55 101.948 159.363 101.948 159.15V157.77ZM104.793 161V156H105.443L105.553 156.82C105.693 156.513 105.896 156.283 106.163 156.13C106.436 155.977 106.766 155.9 107.153 155.9C107.239 155.9 107.333 155.907 107.433 155.92C107.539 155.933 107.629 155.96 107.703 156L107.563 156.73C107.489 156.703 107.409 156.683 107.323 156.67C107.236 156.657 107.113 156.65 106.953 156.65C106.746 156.65 106.536 156.71 106.323 156.83C106.116 156.95 105.943 157.133 105.803 157.38C105.663 157.62 105.593 157.927 105.593 158.3V161H104.793ZM120.766 161H119.916L119.216 159.17H116.226L115.526 161H114.686L117.256 154.4H118.206L120.766 161ZM116.516 158.42H118.926L117.716 155.17L116.516 158.42ZM122.058 163.1V156H122.758L122.828 157.22L122.718 157.08C122.804 156.847 122.934 156.643 123.108 156.47C123.281 156.29 123.491 156.15 123.738 156.05C123.984 155.95 124.251 155.9 124.538 155.9C124.944 155.9 125.318 156.003 125.658 156.21C126.004 156.417 126.281 156.713 126.488 157.1C126.694 157.487 126.798 157.953 126.798 158.5C126.798 159.04 126.691 159.507 126.478 159.9C126.271 160.287 125.994 160.583 125.648 160.79C125.301 160.997 124.921 161.1 124.508 161.1C124.094 161.1 123.731 161 123.418 160.8C123.111 160.593 122.891 160.333 122.758 160.02L122.858 159.87V163.1H122.058ZM124.428 160.4C124.921 160.4 125.304 160.227 125.578 159.88C125.858 159.533 125.998 159.073 125.998 158.5C125.998 157.927 125.861 157.467 125.588 157.12C125.321 156.773 124.944 156.6 124.458 156.6C124.138 156.6 123.858 156.68 123.618 156.84C123.378 156.993 123.191 157.213 123.058 157.5C122.924 157.78 122.858 158.113 122.858 158.5C122.858 158.88 122.921 159.213 123.048 159.5C123.181 159.787 123.364 160.01 123.598 160.17C123.838 160.323 124.114 160.4 124.428 160.4ZM128.427 161V156H129.077L129.187 156.82C129.327 156.513 129.531 156.283 129.797 156.13C130.071 155.977 130.401 155.9 130.787 155.9C130.874 155.9 130.967 155.907 131.067 155.92C131.174 155.933 131.264 155.96 131.337 156L131.197 156.73C131.124 156.703 131.044 156.683 130.957 156.67C130.871 156.657 130.747 156.65 130.587 156.65C130.381 156.65 130.171 156.71 129.957 156.83C129.751 156.95 129.577 157.133 129.437 157.38C129.297 157.62 129.227 157.927 129.227 158.3V161H128.427ZM145.921 154.4V161H145.161V156.85L145.251 155.11H145.241L143.071 161H142.391L140.221 155.11H140.211L140.301 156.85V161H139.541V154.4H140.771L142.221 158.41L142.721 160.06H142.741L143.251 158.42L144.691 154.4H145.921ZM150.888 157.77C150.888 157.397 150.788 157.11 150.588 156.91C150.388 156.703 150.105 156.6 149.738 156.6C149.391 156.6 149.098 156.677 148.858 156.83C148.618 156.977 148.441 157.217 148.328 157.55L147.678 157.15C147.811 156.777 148.058 156.477 148.418 156.25C148.778 156.017 149.225 155.9 149.758 155.9C150.118 155.9 150.445 155.963 150.738 156.09C151.031 156.21 151.261 156.397 151.428 156.65C151.601 156.897 151.688 157.217 151.688 157.61V160.03C151.688 160.27 151.815 160.39 152.068 160.39C152.195 160.39 152.318 160.373 152.438 160.34L152.398 160.97C152.265 161.037 152.091 161.07 151.878 161.07C151.685 161.07 151.511 161.033 151.358 160.96C151.205 160.887 151.085 160.777 150.998 160.63C150.911 160.477 150.868 160.287 150.868 160.06V159.96L151.068 159.99C150.988 160.25 150.851 160.463 150.658 160.63C150.465 160.79 150.248 160.91 150.008 160.99C149.768 161.063 149.531 161.1 149.298 161.1C149.005 161.1 148.731 161.05 148.478 160.95C148.225 160.85 148.021 160.7 147.868 160.5C147.721 160.293 147.648 160.04 147.648 159.74C147.648 159.367 147.771 159.06 148.018 158.82C148.271 158.573 148.621 158.407 149.068 158.32L151.048 157.93V158.59L149.438 158.92C149.111 158.987 148.868 159.08 148.708 159.2C148.548 159.32 148.468 159.487 148.468 159.7C148.468 159.907 148.548 160.077 148.708 160.21C148.875 160.337 149.108 160.4 149.408 160.4C149.601 160.4 149.785 160.377 149.958 160.33C150.138 160.277 150.298 160.2 150.438 160.1C150.578 159.993 150.688 159.863 150.768 159.71C150.848 159.55 150.888 159.363 150.888 159.15V157.77ZM157.549 156L155.199 161.84C155.072 162.167 154.932 162.423 154.779 162.61C154.632 162.803 154.466 162.94 154.279 163.02C154.099 163.107 153.889 163.15 153.649 163.15C153.422 163.15 153.212 163.117 153.019 163.05C152.832 162.99 152.666 162.907 152.519 162.8L152.739 162.1C152.872 162.22 153.012 162.307 153.159 162.36C153.312 162.42 153.462 162.45 153.609 162.45C153.782 162.45 153.946 162.397 154.099 162.29C154.252 162.183 154.392 161.967 154.519 161.64L154.779 160.99L154.279 159.8L152.689 156H153.599L154.849 159.26L155.159 160.15L155.519 159.16L156.689 156H157.549ZM201.206 154.4V158.74C201.206 159.48 201.006 160.06 200.606 160.48C200.213 160.893 199.666 161.1 198.966 161.1C198.473 161.1 198.066 161.007 197.746 160.82C197.426 160.633 197.203 160.37 197.076 160.03C196.956 159.683 196.939 159.28 197.026 158.82L197.766 158.67C197.693 159.237 197.743 159.66 197.916 159.94C198.096 160.213 198.436 160.35 198.936 160.35C199.503 160.35 199.889 160.197 200.096 159.89C200.303 159.577 200.406 159.127 200.406 158.54V154.4H201.206ZM204.972 161.1C204.652 161.1 204.349 161.04 204.062 160.92C203.782 160.8 203.552 160.607 203.372 160.34C203.199 160.067 203.112 159.713 203.112 159.28V156H203.912V159.07C203.912 159.577 204.022 159.927 204.242 160.12C204.462 160.307 204.772 160.4 205.172 160.4C205.359 160.4 205.542 160.37 205.722 160.31C205.902 160.243 206.062 160.143 206.202 160.01C206.349 159.87 206.462 159.693 206.542 159.48C206.629 159.267 206.672 159.013 206.672 158.72V156H207.472V161H206.772L206.722 160.24C206.549 160.54 206.312 160.76 206.012 160.9C205.719 161.033 205.372 161.1 204.972 161.1ZM210.194 153.7V159.73C210.194 159.983 210.241 160.16 210.334 160.26C210.427 160.353 210.577 160.4 210.784 160.4C210.917 160.4 211.027 160.39 211.114 160.37C211.201 160.35 211.317 160.313 211.464 160.26L211.334 160.96C211.227 161.007 211.111 161.04 210.984 161.06C210.857 161.087 210.727 161.1 210.594 161.1C210.187 161.1 209.884 160.99 209.684 160.77C209.491 160.55 209.394 160.213 209.394 159.76V153.7H210.194Z" fill="#6D7589"/>
<path d="M172.686 154.4V158.74C172.686 159.48 172.486 160.06 172.086 160.48C171.693 160.893 171.146 161.1 170.446 161.1C169.953 161.1 169.546 161.007 169.226 160.82C168.906 160.633 168.683 160.37 168.556 160.03C168.436 159.683 168.419 159.28 168.506 158.82L169.246 158.67C169.173 159.237 169.223 159.66 169.396 159.94C169.576 160.213 169.916 160.35 170.416 160.35C170.983 160.35 171.369 160.197 171.576 159.89C171.783 159.577 171.886 159.127 171.886 158.54V154.4H172.686ZM176.452 161.1C176.132 161.1 175.829 161.04 175.542 160.92C175.262 160.8 175.032 160.607 174.852 160.34C174.679 160.067 174.592 159.713 174.592 159.28V156H175.392V159.07C175.392 159.577 175.502 159.927 175.722 160.12C175.942 160.307 176.252 160.4 176.652 160.4C176.839 160.4 177.022 160.37 177.202 160.31C177.382 160.243 177.542 160.143 177.682 160.01C177.829 159.87 177.942 159.693 178.022 159.48C178.109 159.267 178.152 159.013 178.152 158.72V156H178.952V161H178.252L178.202 160.24C178.029 160.54 177.792 160.76 177.492 160.9C177.199 161.033 176.852 161.1 176.452 161.1ZM180.914 161V156H181.614L181.684 157.12L181.554 157.01C181.661 156.743 181.804 156.53 181.984 156.37C182.164 156.203 182.371 156.083 182.604 156.01C182.844 155.937 183.091 155.9 183.344 155.9C183.704 155.9 184.031 155.97 184.324 156.11C184.617 156.243 184.851 156.45 185.024 156.73C185.204 157.01 185.294 157.367 185.294 157.8V161H184.494V158.08C184.494 157.527 184.374 157.143 184.134 156.93C183.901 156.71 183.611 156.6 183.264 156.6C183.024 156.6 182.784 156.657 182.544 156.77C182.304 156.883 182.104 157.067 181.944 157.32C181.791 157.573 181.714 157.913 181.714 158.34V161H180.914Z" fill="#101828"/>
<path d="M43.74 66.9C43.58 67.38 43.34 67.788 43.02 68.124C42.7 68.452 42.324 68.7 41.892 68.868C41.46 69.036 40.984 69.12 40.464 69.12C39.704 69.12 39.044 68.956 38.484 68.628C37.924 68.3 37.492 67.832 37.188 67.224C36.884 66.616 36.732 65.888 36.732 65.04C36.732 64.192 36.884 63.464 37.188 62.856C37.492 62.248 37.924 61.78 38.484 61.452C39.044 61.124 39.7 60.96 40.452 60.96C40.972 60.96 41.44 61.032 41.856 61.176C42.28 61.32 42.64 61.536 42.936 61.824C43.232 62.112 43.46 62.472 43.62 62.904L42.408 63.444C42.248 62.972 42.016 62.628 41.712 62.412C41.408 62.188 41.012 62.076 40.524 62.076C40.036 62.076 39.608 62.192 39.24 62.424C38.872 62.656 38.584 62.992 38.376 63.432C38.176 63.872 38.076 64.408 38.076 65.04C38.076 65.664 38.172 66.2 38.364 66.648C38.556 67.088 38.832 67.424 39.192 67.656C39.552 67.888 39.984 68.004 40.488 68.004C40.976 68.004 41.396 67.88 41.748 67.632C42.108 67.376 42.364 66.996 42.516 66.492L43.74 66.9ZM47.8031 62.88C48.3871 62.88 48.9031 63.004 49.3511 63.252C49.7991 63.5 50.1471 63.86 50.3951 64.332C50.6511 64.796 50.7791 65.352 50.7791 66C50.7791 66.648 50.6511 67.208 50.3951 67.68C50.1471 68.144 49.7991 68.5 49.3511 68.748C48.9031 68.996 48.3871 69.12 47.8031 69.12C47.2191 69.12 46.7031 68.996 46.2551 68.748C45.8071 68.5 45.4551 68.144 45.1991 67.68C44.9431 67.208 44.8151 66.648 44.8151 66C44.8151 65.352 44.9431 64.796 45.1991 64.332C45.4551 63.86 45.8071 63.5 46.2551 63.252C46.7031 63.004 47.2191 62.88 47.8031 62.88ZM47.8031 63.888C47.4431 63.888 47.1351 63.972 46.8791 64.14C46.6311 64.3 46.4391 64.536 46.3031 64.848C46.1671 65.16 46.0991 65.544 46.0991 66C46.0991 66.448 46.1671 66.832 46.3031 67.152C46.4391 67.464 46.6311 67.704 46.8791 67.872C47.1351 68.032 47.4431 68.112 47.8031 68.112C48.1631 68.112 48.4671 68.032 48.7151 67.872C48.9631 67.704 49.1551 67.464 49.2911 67.152C49.4271 66.832 49.4951 66.448 49.4951 66C49.4951 65.544 49.4271 65.16 49.2911 64.848C49.1551 64.536 48.9631 64.3 48.7151 64.14C48.4671 63.972 48.1631 63.888 47.8031 63.888ZM54.5304 69.12C54.1384 69.12 53.7744 69.048 53.4384 68.904C53.1104 68.76 52.8464 68.528 52.6464 68.208C52.4464 67.888 52.3464 67.472 52.3464 66.96V63H53.6304V66.636C53.6304 67.18 53.7464 67.556 53.9784 67.764C54.2104 67.964 54.5344 68.064 54.9504 68.064C55.1504 68.064 55.3424 68.032 55.5264 67.968C55.7184 67.896 55.8904 67.788 56.0424 67.644C56.1944 67.492 56.3104 67.3 56.3904 67.068C56.4784 66.836 56.5224 66.564 56.5224 66.252V63H57.8064V69H56.6784L56.6184 68.028C56.4104 68.404 56.1304 68.68 55.7784 68.856C55.4264 69.032 55.0104 69.12 54.5304 69.12ZM59.8124 69V63H60.9044L61.0244 64.08C61.1844 63.688 61.4204 63.392 61.7324 63.192C62.0524 62.984 62.4444 62.88 62.9084 62.88C63.0284 62.88 63.1484 62.892 63.2684 62.916C63.3884 62.932 63.4884 62.96 63.5684 63L63.3884 64.128C63.3004 64.096 63.2004 64.072 63.0884 64.056C62.9844 64.032 62.8404 64.02 62.6564 64.02C62.4084 64.02 62.1644 64.088 61.9244 64.224C61.6844 64.352 61.4844 64.548 61.3244 64.812C61.1724 65.076 61.0964 65.412 61.0964 65.82V69H59.8124ZM66.8502 69.12C66.2502 69.12 65.7022 69.004 65.2062 68.772C64.7102 68.54 64.3182 68.212 64.0302 67.788L64.9182 67.02C65.0942 67.348 65.3462 67.612 65.6742 67.812C66.0102 68.004 66.4102 68.1 66.8742 68.1C67.2422 68.1 67.5342 68.036 67.7502 67.908C67.9662 67.78 68.0742 67.6 68.0742 67.368C68.0742 67.216 68.0222 67.084 67.9182 66.972C67.8222 66.852 67.6342 66.76 67.3542 66.696L66.0942 66.432C65.4542 66.304 64.9982 66.1 64.7262 65.82C64.4542 65.532 64.3182 65.168 64.3182 64.728C64.3182 64.4 64.4142 64.096 64.6062 63.816C64.7982 63.536 65.0782 63.312 65.4462 63.144C65.8222 62.968 66.2702 62.88 66.7902 62.88C67.3902 62.88 67.9022 62.988 68.3262 63.204C68.7502 63.412 69.0742 63.712 69.2982 64.104L68.4102 64.848C68.2582 64.528 68.0342 64.292 67.7382 64.14C67.4422 63.98 67.1342 63.9 66.8142 63.9C66.5582 63.9 66.3382 63.932 66.1542 63.996C65.9702 64.06 65.8302 64.148 65.7342 64.26C65.6382 64.372 65.5902 64.504 65.5902 64.656C65.5902 64.816 65.6502 64.956 65.7702 65.076C65.8902 65.196 66.1062 65.288 66.4182 65.352L67.7862 65.64C68.3622 65.752 68.7662 65.944 68.9982 66.216C69.2382 66.48 69.3582 66.804 69.3582 67.188C69.3582 67.572 69.2582 67.912 69.0582 68.208C68.8582 68.496 68.5702 68.72 68.1942 68.88C67.8182 69.04 67.3702 69.12 66.8502 69.12ZM73.5501 69.12C72.9501 69.12 72.4221 68.996 71.9661 68.748C71.5101 68.5 71.1541 68.144 70.8981 67.68C70.6501 67.208 70.5261 66.648 70.5261 66C70.5261 65.352 70.6501 64.796 70.8981 64.332C71.1541 63.86 71.5061 63.5 71.9541 63.252C72.4021 63.004 72.9101 62.88 73.4781 62.88C74.0621 62.88 74.5581 63 74.9661 63.24C75.3741 63.48 75.6861 63.808 75.9021 64.224C76.1181 64.64 76.2261 65.112 76.2261 65.64C76.2261 65.784 76.2221 65.92 76.2141 66.048C76.2061 66.176 76.1941 66.288 76.1781 66.384H71.3541V65.4H75.6141L74.9781 65.592C74.9781 65.048 74.8421 64.632 74.5701 64.344C74.2981 64.048 73.9261 63.9 73.4541 63.9C73.1101 63.9 72.8101 63.98 72.5541 64.14C72.2981 64.3 72.1021 64.54 71.9661 64.86C71.8301 65.172 71.7621 65.556 71.7621 66.012C71.7621 66.46 71.8341 66.84 71.9781 67.152C72.1221 67.464 72.3261 67.7 72.5901 67.86C72.8541 68.02 73.1661 68.1 73.5261 68.1C73.9261 68.1 74.2501 68.024 74.4981 67.872C74.7461 67.72 74.9421 67.508 75.0861 67.236L76.1061 67.716C75.9621 68.004 75.7661 68.256 75.5181 68.472C75.2781 68.68 74.9901 68.84 74.6541 68.952C74.3181 69.064 73.9501 69.12 73.5501 69.12ZM39.6 76.88C40.184 76.88 40.7 77.004 41.148 77.252C41.596 77.5 41.944 77.86 42.192 78.332C42.448 78.796 42.576 79.352 42.576 80C42.576 80.648 42.448 81.208 42.192 81.68C41.944 82.144 41.596 82.5 41.148 82.748C40.7 82.996 40.184 83.12 39.6 83.12C39.016 83.12 38.5 82.996 38.052 82.748C37.604 82.5 37.252 82.144 36.996 81.68C36.74 81.208 36.612 80.648 36.612 80C36.612 79.352 36.74 78.796 36.996 78.332C37.252 77.86 37.604 77.5 38.052 77.252C38.5 77.004 39.016 76.88 39.6 76.88ZM39.6 77.888C39.24 77.888 38.932 77.972 38.676 78.14C38.428 78.3 38.236 78.536 38.1 78.848C37.964 79.16 37.896 79.544 37.896 80C37.896 80.448 37.964 80.832 38.1 81.152C38.236 81.464 38.428 81.704 38.676 81.872C38.932 82.032 39.24 82.112 39.6 82.112C39.96 82.112 40.264 82.032 40.512 81.872C40.76 81.704 40.952 81.464 41.088 81.152C41.224 80.832 41.292 80.448 41.292 80C41.292 79.544 41.224 79.16 41.088 78.848C40.952 78.536 40.76 78.3 40.512 78.14C40.264 77.972 39.96 77.888 39.6 77.888ZM48.1042 77H49.4482L47.0602 83H45.6562L43.2562 77H44.6602L46.3642 81.884L48.1042 77ZM53.1477 83.12C52.5477 83.12 52.0197 82.996 51.5637 82.748C51.1077 82.5 50.7517 82.144 50.4957 81.68C50.2477 81.208 50.1237 80.648 50.1237 80C50.1237 79.352 50.2477 78.796 50.4957 78.332C50.7517 77.86 51.1037 77.5 51.5517 77.252C51.9997 77.004 52.5077 76.88 53.0757 76.88C53.6597 76.88 54.1557 77 54.5637 77.24C54.9717 77.48 55.2837 77.808 55.4997 78.224C55.7157 78.64 55.8237 79.112 55.8237 79.64C55.8237 79.784 55.8197 79.92 55.8117 80.048C55.8037 80.176 55.7917 80.288 55.7757 80.384H50.9517V79.4H55.2117L54.5757 79.592C54.5757 79.048 54.4397 78.632 54.1677 78.344C53.8957 78.048 53.5237 77.9 53.0517 77.9C52.7077 77.9 52.4077 77.98 52.1517 78.14C51.8957 78.3 51.6997 78.54 51.5637 78.86C51.4277 79.172 51.3597 79.556 51.3597 80.012C51.3597 80.46 51.4317 80.84 51.5757 81.152C51.7197 81.464 51.9237 81.7 52.1877 81.86C52.4517 82.02 52.7637 82.1 53.1237 82.1C53.5237 82.1 53.8477 82.024 54.0957 81.872C54.3437 81.72 54.5397 81.508 54.6837 81.236L55.7037 81.716C55.5597 82.004 55.3637 82.256 55.1157 82.472C54.8757 82.68 54.5877 82.84 54.2517 82.952C53.9157 83.064 53.5477 83.12 53.1477 83.12ZM57.4452 83V77H58.5372L58.6572 78.08C58.8172 77.688 59.0532 77.392 59.3652 77.192C59.6852 76.984 60.0772 76.88 60.5412 76.88C60.6612 76.88 60.7812 76.892 60.9012 76.916C61.0212 76.932 61.1212 76.96 61.2012 77L61.0212 78.128C60.9332 78.096 60.8332 78.072 60.7212 78.056C60.6172 78.032 60.4732 78.02 60.2892 78.02C60.0412 78.02 59.7972 78.088 59.5572 78.224C59.3172 78.352 59.1172 78.548 58.9572 78.812C58.8052 79.076 58.7292 79.412 58.7292 79.82V83H57.4452ZM66.362 77H67.706L65.318 83H63.914L61.514 77H62.918L64.622 81.884L66.362 77ZM69.4487 75.992C69.1687 75.992 68.9527 75.924 68.8007 75.788C68.6567 75.644 68.5847 75.444 68.5847 75.188C68.5847 74.932 68.6567 74.736 68.8007 74.6C68.9527 74.464 69.1687 74.396 69.4487 74.396C69.7207 74.396 69.9287 74.464 70.0727 74.6C70.2247 74.736 70.3007 74.932 70.3007 75.188C70.3007 75.444 70.2247 75.644 70.0727 75.788C69.9287 75.924 69.7207 75.992 69.4487 75.992ZM70.0847 77V83H68.8007V77H70.0847ZM74.7337 83.12C74.1337 83.12 73.6057 82.996 73.1497 82.748C72.6937 82.5 72.3377 82.144 72.0817 81.68C71.8337 81.208 71.7097 80.648 71.7097 80C71.7097 79.352 71.8337 78.796 72.0817 78.332C72.3377 77.86 72.6897 77.5 73.1377 77.252C73.5857 77.004 74.0937 76.88 74.6617 76.88C75.2457 76.88 75.7417 77 76.1497 77.24C76.5577 77.48 76.8697 77.808 77.0857 78.224C77.3017 78.64 77.4097 79.112 77.4097 79.64C77.4097 79.784 77.4057 79.92 77.3977 80.048C77.3897 80.176 77.3777 80.288 77.3617 80.384H72.5377V79.4H76.7977L76.1617 79.592C76.1617 79.048 76.0257 78.632 75.7537 78.344C75.4817 78.048 75.1097 77.9 74.6377 77.9C74.2937 77.9 73.9937 77.98 73.7377 78.14C73.4817 78.3 73.2857 78.54 73.1497 78.86C73.0137 79.172 72.9457 79.556 72.9457 80.012C72.9457 80.46 73.0177 80.84 73.1617 81.152C73.3057 81.464 73.5097 81.7 73.7737 81.86C74.0377 82.02 74.3497 82.1 74.7097 82.1C75.1097 82.1 75.4337 82.024 75.6817 81.872C75.9297 81.72 76.1257 81.508 76.2697 81.236L77.2897 81.716C77.1457 82.004 76.9497 82.256 76.7017 82.472C76.4617 82.68 76.1737 82.84 75.8377 82.952C75.5017 83.064 75.1337 83.12 74.7337 83.12ZM86.5108 77H87.9028L85.8868 83H84.4828L82.9708 78.548L81.5428 83H80.1388L78.1348 77H79.5148L80.8828 81.74L82.3708 77H83.6548L85.1428 81.74L86.5108 77Z" fill="#101828"/>
<path d="M137.188 72.136V78.208H136.072V72.136H137.188ZM139.576 74.632V75.7H133.672V74.632H139.576ZM142.584 79V73.564C142.584 73.404 142.584 73.24 142.584 73.072C142.592 72.896 142.6 72.712 142.608 72.52C142.336 72.784 142.024 73.012 141.672 73.204C141.328 73.388 140.972 73.52 140.604 73.6L140.364 72.484C140.532 72.46 140.728 72.404 140.952 72.316C141.176 72.228 141.408 72.116 141.648 71.98C141.888 71.844 142.108 71.7 142.308 71.548C142.508 71.388 142.664 71.232 142.776 71.08H143.856V79H142.584ZM148.421 79.12C147.717 79.12 147.137 78.968 146.681 78.664C146.233 78.36 145.877 77.92 145.613 77.344L146.813 76.72C146.933 77.104 147.113 77.42 147.353 77.668C147.601 77.908 147.965 78.028 148.445 78.028C148.781 78.028 149.065 77.968 149.297 77.848C149.537 77.72 149.721 77.544 149.849 77.32C149.977 77.088 150.041 76.812 150.041 76.492C150.041 76.156 149.981 75.876 149.861 75.652C149.741 75.428 149.569 75.26 149.345 75.148C149.121 75.028 148.841 74.968 148.505 74.968C148.273 74.968 148.057 74.992 147.857 75.04C147.657 75.088 147.477 75.164 147.317 75.268C147.157 75.364 147.017 75.492 146.897 75.652L145.841 75.448L146.321 71.08H150.929V72.184H147.341L147.053 74.416L147.029 74.548H147.053C147.237 74.348 147.473 74.192 147.761 74.08C148.057 73.968 148.405 73.912 148.805 73.912C149.317 73.912 149.757 74.02 150.125 74.236C150.493 74.444 150.781 74.736 150.989 75.112C151.197 75.488 151.301 75.924 151.301 76.42C151.301 76.852 151.229 77.236 151.085 77.572C150.941 77.908 150.737 78.192 150.473 78.424C150.209 78.656 149.901 78.832 149.549 78.952C149.205 79.064 148.829 79.12 148.421 79.12ZM154.097 79L159.281 71.08H160.385L155.213 79H154.097ZM154.409 70.96C154.817 70.96 155.169 71.052 155.465 71.236C155.769 71.42 156.001 71.676 156.161 72.004C156.329 72.332 156.413 72.72 156.413 73.168C156.413 73.608 156.329 73.996 156.161 74.332C156.001 74.66 155.769 74.916 155.465 75.1C155.169 75.284 154.817 75.376 154.409 75.376C154.009 75.376 153.657 75.284 153.353 75.1C153.049 74.916 152.813 74.66 152.645 74.332C152.485 73.996 152.405 73.608 152.405 73.168C152.405 72.72 152.485 72.332 152.645 72.004C152.813 71.676 153.049 71.42 153.353 71.236C153.657 71.052 154.009 70.96 154.409 70.96ZM154.409 71.896C154.209 71.896 154.037 71.948 153.893 72.052C153.749 72.148 153.641 72.292 153.569 72.484C153.497 72.668 153.461 72.896 153.461 73.168C153.461 73.432 153.497 73.66 153.569 73.852C153.641 74.044 153.749 74.188 153.893 74.284C154.037 74.38 154.209 74.428 154.409 74.428C154.617 74.428 154.793 74.38 154.937 74.284C155.081 74.188 155.189 74.044 155.261 73.852C155.333 73.66 155.369 73.432 155.369 73.168C155.369 72.896 155.333 72.668 155.261 72.484C155.189 72.292 155.081 72.148 154.937 72.052C154.793 71.948 154.617 71.896 154.409 71.896ZM160.073 74.704C160.481 74.704 160.833 74.796 161.129 74.98C161.433 75.164 161.665 75.424 161.825 75.76C161.993 76.088 162.077 76.472 162.077 76.912C162.077 77.36 161.993 77.748 161.825 78.076C161.665 78.404 161.433 78.66 161.129 78.844C160.833 79.028 160.481 79.12 160.073 79.12C159.673 79.12 159.321 79.028 159.017 78.844C158.713 78.66 158.477 78.404 158.309 78.076C158.149 77.748 158.069 77.36 158.069 76.912C158.069 76.472 158.149 76.088 158.309 75.76C158.477 75.424 158.713 75.164 159.017 74.98C159.321 74.796 159.673 74.704 160.073 74.704ZM160.073 75.652C159.873 75.652 159.701 75.7 159.557 75.796C159.413 75.892 159.305 76.036 159.233 76.228C159.161 76.412 159.125 76.64 159.125 76.912C159.125 77.176 159.161 77.404 159.233 77.596C159.305 77.788 159.413 77.936 159.557 78.04C159.701 78.136 159.873 78.184 160.073 78.184C160.281 78.184 160.457 78.136 160.601 78.04C160.745 77.936 160.853 77.788 160.925 77.596C160.997 77.404 161.033 77.176 161.033 76.912C161.033 76.648 160.997 76.42 160.925 76.228C160.853 76.036 160.745 75.892 160.601 75.796C160.457 75.7 160.281 75.652 160.073 75.652Z" fill="#101828"/>
</g>
<defs>
<filter id="filter0_d_2_354" x="0" y="0" width="244" height="201" filterUnits="userSpaceOnUse" color-interpolation-filters="sRGB">
<feFlood flood-opacity="0" result="BackgroundImageFix"/>
<feColorMatrix in="SourceAlpha" type="matrix" values="0 0 0 0 0 0 0 0 0 0 0 0 0 0 0 0 0 0 127 0" result="hardAlpha"/>
<feOffset dx="-2" dy="2"/>
<feGaussianBlur stdDeviation="9.5"/>
<feComposite in2="hardAlpha" operator="out"/>
<feColorMatrix type="matrix" values="0 0 0 0 0.425 0 0 0 0 0.425 0 0 0 0 0.425 0 0 0 0.1 0"/>
<feBlend mode="normal" in2="BackgroundImageFix" result="effect1_dropShadow_2_354"/>
<feBlend mode="normal" in="SourceGraphic" in2="effect1_dropShadow_2_354" result="shape"/>
</filter>
</defs>
</svg>
